<?xml version="1.0" encoding="UTF-8"?>
<svg version="1.1" xmlns="http://www.w3.org/2000/svg" width="500" height="500">
<path d="M0 0 C1.10410278 0.93714069 2.20687284 1.87585163 3.30909729 2.81520081 C3.92334847 3.33777246 4.53759966 3.8603441 5.17046452 4.39875126 C7.93630884 6.8194776 10.51313059 9.40849711 13.08984375 12.02734375 C13.91217247 12.8553524 13.91217247 12.8553524 14.75111389 13.7000885 C17.06216815 16.02725697 19.36714766 18.36040648 21.67260742 20.69311523 C27.43424323 26.51676553 33.15926626 32.2795815 39.40014648 37.59594727 C41.64899079 39.56956295 43.59567642 41.74818051 45.5625 44 C51.37049514 50.49824923 57.53027588 56.64858232 63.6875 62.8125 C64.43327805 63.56188843 64.43327805 63.56188843 65.19412231 64.32641602 C70.42497834 69.5789241 75.70866558 74.70322459 81.33862305 79.5300293 C83.60211575 81.53274635 85.57549489 83.72507465 87.5625 86 C93.37049514 92.49824923 99.53027588 98.64858232 105.6875 104.8125 C106.18468536 105.31209229 106.68187073 105.81168457 107.19412231 106.32641602 C112.42353683 111.57747662 117.70572548 116.70028161 123.33422852 121.52563477 C125.62055997 123.54925424 127.61590234 125.7658813 129.625 128.0625 C135.25824654 134.36121538 141.21753739 140.33573112 147.1875 146.3125 C147.89740082 147.0260112 147.89740082 147.0260112 148.62164307 147.75393677 C153.6913918 152.84573934 158.81536736 157.78007354 164.26782227 162.45922852 C166.84458876 164.7512614 169.07867166 167.23688849 171.375 169.8125 C179.25110818 178.53134648 187.64912425 186.73977337 196 195 C194.61335833 198.22003661 193.07606066 200.0360219 190.37890625 202.25390625 C186.01564238 205.94953462 181.96740816 209.88413941 177.9375 213.9375 C177.26912109 214.60201172 176.60074219 215.26652344 175.91210938 215.95117188 C171.97164926 219.8992908 168.23252654 223.96363911 164.58764648 228.18530273 C162.50108325 230.57026729 160.30661642 232.82585153 158.0625 235.0625 C157.29035156 235.83722656 156.51820313 236.61195313 155.72265625 237.41015625 C153.60439216 239.42509039 151.46289429 241.34363722 149.25 243.25 C144.61015235 247.28093232 140.27101691 251.58192957 135.9375 255.9375 C135.17373047 256.69740234 134.40996094 257.45730469 133.62304688 258.24023438 C129.43395144 262.43649678 125.40452229 266.71209389 121.55273438 271.22070312 C117.82008935 275.49798567 113.75749258 279.38591057 109.4375 283.0625 C104.20570603 287.62097227 99.33175476 292.52228483 94.4375 297.4375 C93.53064453 298.34048828 92.62378906 299.24347656 91.68945312 300.17382812 C87.77220502 304.09675751 83.91552859 308.02195375 80.3046875 312.23046875 C77.00919463 316.06834987 73.42203773 319.46974307 69.6875 322.875 C63.48542611 328.61318851 57.41682296 334.46746844 51.4375 340.4375 C50.70039795 341.1701709 49.9632959 341.9028418 49.20385742 342.65771484 C45.83477136 346.03561949 42.57020979 349.44753149 39.46484375 353.0703125 C35.94104754 357.15574977 32.09541297 360.79161214 28.125 364.4375 C19.19047127 372.73591019 10.56857517 381.32608014 2 390 C-2.72419763 388.60150106 -5.26455203 385.88555992 -8.375 382.25 C-11.4858102 378.71750103 -14.5339573 375.36629158 -18.1875 372.375 C-19.5796875 371.199375 -19.5796875 371.199375 -21 370 C-21 369.34 -21 368.68 -21 368 C-21.52980469 367.79632813 -22.05960938 367.59265625 -22.60546875 367.3828125 C-26.04079646 365.39895278 -28.55091752 362.69752332 -31.3125 359.875 C-31.85583984 359.33101563 -32.39917969 358.78703125 -32.95898438 358.2265625 C-35.84992984 355.30489861 -38.61754634 352.31614887 -41.296875 349.19921875 C-45.61388863 344.21652821 -50.26718417 339.58679415 -54.9375 334.9375 C-55.79279297 334.07833984 -56.64808594 333.21917969 -57.52929688 332.33398438 C-61.97421178 327.89585043 -66.47427961 323.59227175 -71.25585938 319.51757812 C-75.5365445 315.79295065 -79.41647795 311.72146268 -83.09375 307.40625 C-87.48828871 302.36260384 -92.1983832 297.65528544 -96.9375 292.9375 C-97.79279297 292.07833984 -98.64808594 291.21917969 -99.52929688 290.33398438 C-103.97421178 285.89585043 -108.47427961 281.59227175 -113.25585938 277.51757812 C-117.5365445 273.79295065 -121.41647795 269.72146268 -125.09375 265.40625 C-129.48828871 260.36260384 -134.1983832 255.65528544 -138.9375 250.9375 C-139.79279297 250.07833984 -140.64808594 249.21917969 -141.52929688 248.33398438 C-142.37427734 247.49029297 -143.21925781 246.64660156 -144.08984375 245.77734375 C-144.84128662 245.02702881 -145.59272949 244.27671387 -146.36694336 243.50366211 C-148.45547933 241.51776165 -150.57056556 239.62360965 -152.75 237.74121094 C-159.97311808 231.46202995 -166.67803262 224.62419934 -173.46655273 217.88354492 C-175.20801217 216.15879092 -176.95483848 214.43944019 -178.70678711 212.7253418 C-181.24498791 210.24155298 -183.76666569 207.7420341 -186.28515625 205.23828125 C-187.07455093 204.47155594 -187.86394562 203.70483063 -188.67726135 202.91487122 C-189.39228317 202.19699936 -190.10730499 201.4791275 -190.84399414 200.73950195 C-191.79708214 199.79854424 -191.79708214 199.79854424 -192.76942444 198.83857727 C-194 197 -194 197 -193.77298599 195.10423541 C-192.85618466 192.60850347 -191.7420015 191.36920435 -189.86279964 189.49365616 C-189.18851325 188.81339662 -188.51422686 188.13313708 -187.81950754 187.43226361 C-186.69744727 186.32331113 -186.69744727 186.32331113 -185.55271912 185.19195557 C-184.76373909 184.40041226 -183.97475906 183.60886896 -183.16187054 182.79333949 C-180.50489341 180.13140401 -177.83730366 177.48036228 -175.16967773 174.82910156 C-173.26742915 172.9276988 -171.365783 171.02571106 -169.46487427 169.12297058 C-165.36529281 165.02181508 -161.26024865 160.92619382 -157.15145683 156.83426666 C-151.2108266 150.9180041 -145.27848486 144.99348767 -139.3481418 139.0669156 C-129.72664019 129.45198198 -120.09845634 119.84376873 -110.46606445 110.23974609 C-101.10838688 100.90960009 -91.75386127 91.57631248 -82.40356445 82.23876953 C-81.82733703 81.66333028 -81.25110961 81.08789103 -80.65742075 80.49501422 C-77.76671408 77.60822262 -74.87606934 74.72136902 -71.98545539 71.83448458 C-47.99989821 47.88003412 -24.00349483 23.936476 0 0 Z M0 22 C-0.33 22.99 -0.66 23.98 -1 25 C-1.66 25 -2.32 25 -3 25 C-4.72506948 26.62799871 -6.36010723 28.28901808 -8 30 C-9.19575264 31.19163704 -10.39498874 32.37978466 -11.59692383 33.56518555 C-15.22811031 37.16087234 -18.85326351 40.76257592 -22.47631836 44.36645508 C-24.04096429 45.92096326 -25.60738863 47.47368337 -27.17553711 49.0246582 C-29.44070392 51.26569981 -31.69946797 53.5130211 -33.95703125 55.76171875 C-34.66318069 56.45754562 -35.36933014 57.1533725 -36.09687805 57.87028503 C-36.74142441 58.51468033 -37.38597076 59.15907562 -38.05004883 59.82299805 C-38.90678947 60.67307686 -38.90678947 60.67307686 -39.78083801 61.54032898 C-41.21368113 62.93886154 -41.21368113 62.93886154 -41 65 C-41.66 65 -42.32 65 -43 65 C-44.36176922 66.64351457 -45.68962066 68.31522656 -47 70 C-48.64783606 71.68528688 -50.31002677 73.35697047 -52 75 C-51.175 75.28875 -50.35 75.5775 -49.5 75.875 C-45.21675885 77.9864569 -42.89920728 81.73531925 -40.0625 85.453125 C-37.67310632 88.40366416 -35.06686729 90.71542267 -32.16015625 93.13671875 C-19.43778366 104.11062784 -19.43778366 104.11062784 -18.453125 110.609375 C-18.50637287 114.53906756 -19.70109053 116.29845106 -22.359375 119.140625 C-23.80301055 120.53138013 -25.26743812 121.90081739 -26.75 123.25 C-27.47960937 123.94351563 -28.20921875 124.63703125 -28.9609375 125.3515625 C-30.32403327 126.6452643 -31.69522181 127.93053444 -33.07714844 129.20410156 C-35.94600067 131.88354253 -38.63473511 134.53511741 -41.0625 137.625 C-43 140 -43 140 -46 142 C-46 142.66 -46 143.32 -46 144 C-46.99 144.33 -47.98 144.66 -49 145 C-50.37482707 146.63260714 -51.70647667 148.30225062 -53 150 C-53.5775 150.556875 -54.155 151.11375 -54.75 151.6875 C-56.22988506 152.93929598 -56.22988506 152.93929598 -56 155 C-56.66 155.185625 -57.32 155.37125 -58 155.5625 C-62.36245244 157.6528418 -65.50098254 160.69439557 -69 164 C-69.46873535 164.44150391 -69.9374707 164.88300781 -70.42041016 165.33789062 C-71.93733005 166.7765782 -73.43945445 168.22918459 -74.9375 169.6875 C-75.87464844 170.59886719 -76.81179687 171.51023438 -77.77734375 172.44921875 C-79.96603379 174.96101945 -80.26047024 175.9419445 -81 179 C-82.796875 179.9921875 -82.796875 179.9921875 -85 181 C-86.4610504 182.32774288 -87.87708074 183.70631676 -89.25 185.125 C-90.30960937 186.21167969 -90.30960937 186.21167969 -91.390625 187.3203125 C-91.92171875 187.87460938 -92.4528125 188.42890625 -93 189 C-90.15787855 195.64665441 -83.84597676 200.53436731 -78.375 205.0625 C-75.74772753 207.23973043 -73.57524172 209.57945486 -71.375 212.1875 C-68.85018266 215.16826629 -66.56724701 217.27042569 -63 219 C-58.41268002 215.255249 -54.47361194 211.39292292 -50.62890625 206.89453125 C-45.20372244 200.58466518 -45.20372244 200.58466518 -41.8125 198.9375 C-39.45265575 197.71689091 -39.10594067 196.3593401 -38 194 C-37.01 193.34 -36.02 192.68 -35 192 C-35 191.34 -35 190.68 -35 190 C-34.41734375 189.75636719 -33.8346875 189.51273438 -33.234375 189.26171875 C-30.61045966 187.78003229 -29.17558161 186.12399363 -27.25 183.8125 C-23.99807773 180.03978571 -20.59419834 176.76479022 -16.8046875 173.54296875 C-13.02216005 170.30898965 -9.76624462 166.72883097 -6.5625 162.9375 C-3.68874131 159.60669472 -0.76729829 157.31175122 3 155 C3.495 154.443125 3.99 153.88625 4.5 153.3125 C6.8489707 151.25715064 8.93336573 151.20594003 12 151 C16.22105182 153.18501506 19.5460587 156.76423072 23 160 C23.77327637 160.70962891 24.54655273 161.41925781 25.34326172 162.15039062 C27.96439291 164.572974 30.54807271 167.03049475 33.125 169.5 C33.97924561 170.29438477 34.83349121 171.08876953 35.71362305 171.90722656 C40.21711403 176.32663784 43.16865313 179.58829088 43.25097656 186.09326172 C42.90428166 188.72719866 42.23311216 189.97247297 40.3125 191.8125 C39.36117187 192.76962891 39.36117187 192.76962891 38.390625 193.74609375 C37.60171875 194.48988281 36.8128125 195.23367187 36 196 C34.39746943 197.5720308 32.80404015 199.15277767 31.21362305 200.73706055 C30.12131183 201.82065007 29.02127642 202.89651358 27.91333008 203.96411133 C26.57197123 205.27260315 25.28119785 206.63254745 24 208 C24 208.66 24 209.32 24 210 C23.4527124 210.22131592 22.9054248 210.44263184 22.34155273 210.6706543 C19.26768395 212.41575028 16.98694375 214.76594952 14.53515625 217.26953125 C13.76237587 218.04655647 13.76237587 218.04655647 12.97398376 218.83927917 C11.3320505 220.49236715 9.69719981 222.15226177 8.0625 223.8125 C6.96726191 224.91777871 5.87156329 226.02260128 4.77539062 227.12695312 C2.7498107 229.16881385 0.72701058 231.21334469 -1.29272461 233.26098633 C-2.18612549 234.16486084 -3.07952637 235.06873535 -4 236 C-4.88888916 236.90065186 -5.77777832 237.80130371 -6.69360352 238.72924805 C-9.01136572 241.01119006 -11.4619725 242.969578 -14 245 C-15.68762851 246.6454378 -17.3540349 248.31288577 -19 250 C-19.886875 250.845625 -20.77375 251.69125 -21.6875 252.5625 C-23.74993022 254.73641293 -24.76734864 256.33769821 -26 259 C-25.35933594 259.556875 -24.71867187 260.11375 -24.05859375 260.6875 C-19.93329101 264.32711136 -15.93038973 267.91792631 -12.375 272.125 C-8.93144998 276.19905918 -5.07753596 279.57778232 -1 283 C1.33609568 284.99678157 3.66822391 286.99817678 6 289 C6.41362793 288.58113525 6.82725586 288.16227051 7.25341797 287.73071289 C9.12466831 285.83870591 10.99977585 283.95056815 12.875 282.0625 C13.52597656 281.40314453 14.17695313 280.74378906 14.84765625 280.06445312 C15.47285156 279.43603516 16.09804688 278.80761719 16.7421875 278.16015625 C17.3182373 277.57886963 17.89428711 276.99758301 18.48779297 276.39868164 C20 275 20 275 22 274 C22 273.34 22 272.68 22 272 C22.53012695 271.79439453 23.06025391 271.58878906 23.60644531 271.37695312 C26.99820684 269.42575616 29.56050587 266.72455618 32.296875 263.96875 C32.89050842 263.37703003 33.48414185 262.78531006 34.09576416 262.17565918 C35.34543718 260.92734419 36.59259992 259.67651177 37.83740234 258.42333984 C39.75007952 256.49992003 41.67323119 254.58743901 43.59765625 252.67578125 C44.81053798 251.46157861 46.02279952 250.24675607 47.234375 249.03125 C47.81241882 248.45725464 48.39046265 247.88325928 48.98602295 247.29187012 C52.01083869 244.63967594 52.01083869 244.63967594 53 241 C53.55413574 240.77256104 54.10827148 240.54512207 54.67919922 240.31079102 C57.67399705 238.61932567 59.72366236 236.48217638 62.1328125 234.02734375 C62.61072235 233.54423233 63.0886322 233.06112091 63.58102417 232.56336975 C65.10053614 231.02610959 66.6131639 229.48230674 68.125 227.9375 C69.64484559 226.39002523 71.16613419 224.84404074 72.69039917 223.30091858 C74.06918742 221.90429199 75.44316065 220.50291677 76.81689453 219.10131836 C80.16999629 215.87383604 82.32900644 215.77193477 86.96484375 215.84765625 C89.685661 216.05132587 91.6455884 216.615052 94 218 C95.0625 219.8125 95.0625 219.8125 96 222 C99.27245888 226.72688504 101.93602658 228.38287613 107 232 C112.28 226.72 117.56 221.44 123 216 C121.37782461 212.75564922 120.45544522 211.20030809 118.03125 208.765625 C117.46019531 208.19199219 116.88914062 207.61835938 116.30078125 207.02734375 C115.70652344 206.44082031 115.11226562 205.85429687 114.5 205.25 C113.90574219 204.64800781 113.31148437 204.04601562 112.69921875 203.42578125 C112.12816406 202.85730469 111.55710937 202.28882813 110.96875 201.703125 C110.18661133 200.92437012 110.18661133 200.92437012 109.38867188 200.12988281 C108.03981731 198.78962453 108.03981731 198.78962453 106 199 C106 196.03 106 193.06 106 190 C107.32 189.34 108.64 188.68 110 188 C110 187.34 110 186.68 110 186 C110.99 185.67 111.98 185.34 113 185 C113.33 184.34 113.66 183.68 114 183 C115.27875 182.938125 116.5575 182.87625 117.875 182.8125 C118.59429687 182.77769531 119.31359375 182.74289063 120.0546875 182.70703125 C120.69664062 182.80371094 121.33859375 182.90039062 122 183 C122.66 183.99 123.32 184.98 124 186 C124.66 186 125.32 186 126 186 C126.226875 186.53625 126.45375 187.0725 126.6875 187.625 C128.42506353 190.76916258 130.64229997 193.2972707 133 196 C133.495 196.639375 133.99 197.27875 134.5 197.9375 C136.01664633 199.22879853 136.01664633 199.22879853 138.375 199 C141.77745228 197.7038277 143.59239472 195.68276017 146 193 C145.113125 192.29875 144.22625 191.5975 143.3125 190.875 C140.09170325 188.201131 137.62076161 185.25824416 135 182 C133.43897509 180.18445841 133.43897509 180.18445841 132 179 C131.34 179 130.68 179 130 179 C129.690625 178.195625 129.38125 177.39125 129.0625 176.5625 C128.23664655 174.10919595 128.23664655 174.10919595 127 173 C126.63239269 170.67182036 126.29758419 168.3381615 126 166 C126.99 165.67 127.98 165.34 129 165 C129 164.01 129 163.02 129 162 C129.99 161.67 130.98 161.34 132 161 C132 160.34 132 159.68 132 159 C133.32 158.67 134.64 158.34 136 158 C136 157.34 136 156.68 136 156 C134.58542749 154.82693987 133.16714922 153.65814606 131.73364258 152.50830078 C130.02110704 151.01836351 128.64712571 149.48768316 127.19921875 147.7421875 C121.89882628 141.60430079 116.09684015 135.94791483 110.35644531 130.22607422 C108.36927645 128.24429197 106.38754247 126.25718657 104.40625 124.26953125 C103.13313323 122.99707486 101.85970651 121.72492848 100.5859375 120.453125 C99.99936371 119.86452698 99.41278992 119.27592896 98.80844116 118.66949463 C95.67728362 115.55603683 92.45987343 112.75130088 89 110 C87.99797755 108.92041209 87.02938395 107.8087766 86.09765625 106.66796875 C80.86706624 100.55688429 75.10482042 94.95598947 69.41137695 89.28100586 C67.43519886 87.31020512 65.46444452 85.33409344 63.49414062 83.35742188 C62.22427897 82.08822078 60.95410728 80.81932979 59.68359375 79.55078125 C59.10218124 78.96734451 58.52076874 78.38390778 57.92173767 77.78279114 C55.29399554 75.16990507 52.65012046 72.66166404 49.78027344 70.31518555 C47.51358807 68.42767436 45.69333839 66.66755151 43.83203125 64.40625 C39.52485213 59.36323643 34.86896217 54.6828862 30.18237305 49.99707031 C28.66750914 48.47997975 27.16087408 46.95500263 25.65429688 45.4296875 C24.690592 44.46305507 23.72641702 43.49689103 22.76171875 42.53125 C21.89506592 41.66048828 21.02841309 40.78972656 20.13549805 39.89257812 C18.22611233 37.77891383 18.22611233 37.77891383 16 38 C15.74992187 37.41089844 15.49984375 36.82179688 15.2421875 36.21484375 C13.83561753 33.70690295 12.34445666 32.37575422 10.125 30.5625 C6.99698022 27.93315004 4.5325627 25.2144065 2 22 C1.34 22 0.68 22 0 22 Z " fill="#E92364" transform="translate(247,51)"/>
<path d="M0 0 C1.10410278 0.93714069 2.20687284 1.87585163 3.30909729 2.81520081 C3.92334847 3.33777246 4.53759966 3.8603441 5.17046452 4.39875126 C7.93630884 6.8194776 10.51313059 9.40849711 13.08984375 12.02734375 C13.91217247 12.8553524 13.91217247 12.8553524 14.75111389 13.7000885 C17.06216815 16.02725697 19.36714766 18.36040648 21.67260742 20.69311523 C27.43424323 26.51676553 33.15926626 32.2795815 39.40014648 37.59594727 C41.64899079 39.56956295 43.59567642 41.74818051 45.5625 44 C51.37049514 50.49824923 57.53027588 56.64858232 63.6875 62.8125 C64.43327805 63.56188843 64.43327805 63.56188843 65.19412231 64.32641602 C70.42497834 69.5789241 75.70866558 74.70322459 81.33862305 79.5300293 C83.60211575 81.53274635 85.57549489 83.72507465 87.5625 86 C93.37049514 92.49824923 99.53027588 98.64858232 105.6875 104.8125 C106.18468536 105.31209229 106.68187073 105.81168457 107.19412231 106.32641602 C112.42353683 111.57747662 117.70572548 116.70028161 123.33422852 121.52563477 C125.62055997 123.54925424 127.61590234 125.7658813 129.625 128.0625 C135.25824654 134.36121538 141.21753739 140.33573112 147.1875 146.3125 C147.89740082 147.0260112 147.89740082 147.0260112 148.62164307 147.75393677 C153.6913918 152.84573934 158.81536736 157.78007354 164.26782227 162.45922852 C166.84458876 164.7512614 169.07867166 167.23688849 171.375 169.8125 C179.25110818 178.53134648 187.64912425 186.73977337 196 195 C194.61335833 198.22003661 193.07606066 200.0360219 190.37890625 202.25390625 C186.01564238 205.94953462 181.96740816 209.88413941 177.9375 213.9375 C177.26912109 214.60201172 176.60074219 215.26652344 175.91210938 215.95117188 C171.97164926 219.8992908 168.23252654 223.96363911 164.58764648 228.18530273 C162.50108325 230.57026729 160.30661642 232.82585153 158.0625 235.0625 C157.29035156 235.83722656 156.51820313 236.61195313 155.72265625 237.41015625 C153.60439216 239.42509039 151.46289429 241.34363722 149.25 243.25 C144.61015235 247.28093232 140.27101691 251.58192957 135.9375 255.9375 C135.17373047 256.69740234 134.40996094 257.45730469 133.62304688 258.24023438 C129.43395144 262.43649678 125.40452229 266.71209389 121.55273438 271.22070312 C117.82008935 275.49798567 113.75749258 279.38591057 109.4375 283.0625 C104.20570603 287.62097227 99.33175476 292.52228483 94.4375 297.4375 C93.53064453 298.34048828 92.62378906 299.24347656 91.68945312 300.17382812 C87.77220502 304.09675751 83.91552859 308.02195375 80.3046875 312.23046875 C77.00919463 316.06834987 73.42203773 319.46974307 69.6875 322.875 C63.48542611 328.61318851 57.41682296 334.46746844 51.4375 340.4375 C50.70039795 341.1701709 49.9632959 341.9028418 49.20385742 342.65771484 C45.83477136 346.03561949 42.57020979 349.44753149 39.46484375 353.0703125 C35.94104754 357.15574977 32.09541297 360.79161214 28.125 364.4375 C19.19047127 372.73591019 10.56857517 381.32608014 2 390 C-2.72419763 388.60150106 -5.26455203 385.88555992 -8.375 382.25 C-11.4858102 378.71750103 -14.5339573 375.36629158 -18.1875 372.375 C-19.5796875 371.199375 -19.5796875 371.199375 -21 370 C-21 369.34 -21 368.68 -21 368 C-21.52980469 367.79632813 -22.05960938 367.59265625 -22.60546875 367.3828125 C-26.04079646 365.39895278 -28.55091752 362.69752332 -31.3125 359.875 C-31.85583984 359.33101563 -32.39917969 358.78703125 -32.95898438 358.2265625 C-35.84992984 355.30489861 -38.61754634 352.31614887 -41.296875 349.19921875 C-45.61388863 344.21652821 -50.26718417 339.58679415 -54.9375 334.9375 C-55.79279297 334.07833984 -56.64808594 333.21917969 -57.52929688 332.33398438 C-61.97421178 327.89585043 -66.47427961 323.59227175 -71.25585938 319.51757812 C-75.5365445 315.79295065 -79.41647795 311.72146268 -83.09375 307.40625 C-87.48828871 302.36260384 -92.1983832 297.65528544 -96.9375 292.9375 C-97.79279297 292.07833984 -98.64808594 291.21917969 -99.52929688 290.33398438 C-103.97421178 285.89585043 -108.47427961 281.59227175 -113.25585938 277.51757812 C-117.5365445 273.79295065 -121.41647795 269.72146268 -125.09375 265.40625 C-129.48828871 260.36260384 -134.1983832 255.65528544 -138.9375 250.9375 C-139.79279297 250.07833984 -140.64808594 249.21917969 -141.52929688 248.33398438 C-142.37427734 247.49029297 -143.21925781 246.64660156 -144.08984375 245.77734375 C-144.84128662 245.02702881 -145.59272949 244.27671387 -146.36694336 243.50366211 C-148.45547933 241.51776165 -150.57056556 239.62360965 -152.75 237.74121094 C-159.97311808 231.46202995 -166.67803262 224.62419934 -173.46655273 217.88354492 C-175.20801217 216.15879092 -176.95483848 214.43944019 -178.70678711 212.7253418 C-181.24498791 210.24155298 -183.76666569 207.7420341 -186.28515625 205.23828125 C-187.07455093 204.47155594 -187.86394562 203.70483063 -188.67726135 202.91487122 C-189.39228317 202.19699936 -190.10730499 201.4791275 -190.84399414 200.73950195 C-191.79708214 199.79854424 -191.79708214 199.79854424 -192.76942444 198.83857727 C-194 197 -194 197 -193.77298599 195.10423541 C-192.85618466 192.60850347 -191.7420015 191.36920435 -189.86279964 189.49365616 C-189.18851325 188.81339662 -188.51422686 188.13313708 -187.81950754 187.43226361 C-186.69744727 186.32331113 -186.69744727 186.32331113 -185.55271912 185.19195557 C-184.76373909 184.40041226 -183.97475906 183.60886896 -183.16187054 182.79333949 C-180.50489341 180.13140401 -177.83730366 177.48036228 -175.16967773 174.82910156 C-173.26742915 172.9276988 -171.365783 171.02571106 -169.46487427 169.12297058 C-165.36529281 165.02181508 -161.26024865 160.92619382 -157.15145683 156.83426666 C-151.2108266 150.9180041 -145.27848486 144.99348767 -139.3481418 139.0669156 C-129.72664019 129.45198198 -120.09845634 119.84376873 -110.46606445 110.23974609 C-101.10838688 100.90960009 -91.75386127 91.57631248 -82.40356445 82.23876953 C-81.82733703 81.66333028 -81.25110961 81.08789103 -80.65742075 80.49501422 C-77.76671408 77.60822262 -74.87606934 74.72136902 -71.98545539 71.83448458 C-47.99989821 47.88003412 -24.00349483 23.936476 0 0 Z M0 22 C-0.33 22.99 -0.66 23.98 -1 25 C-1.66 25 -2.32 25 -3 25 C-4.72506948 26.62799871 -6.36010723 28.28901808 -8 30 C-9.19575264 31.19163704 -10.39498874 32.37978466 -11.59692383 33.56518555 C-15.22811031 37.16087234 -18.85326351 40.76257592 -22.47631836 44.36645508 C-24.04096429 45.92096326 -25.60738863 47.47368337 -27.17553711 49.0246582 C-29.44070392 51.26569981 -31.69946797 53.5130211 -33.95703125 55.76171875 C-34.66318069 56.45754562 -35.36933014 57.1533725 -36.09687805 57.87028503 C-36.74142441 58.51468033 -37.38597076 59.15907562 -38.05004883 59.82299805 C-38.62120926 60.38971725 -39.19236969 60.95643646 -39.78083801 61.54032898 C-41.21368113 62.93886154 -41.21368113 62.93886154 -41 65 C-41.66 65 -42.32 65 -43 65 C-43.7734375 66.0209375 -43.7734375 66.0209375 -44.5625 67.0625 C-47.33062138 70.39844115 -50.37775768 72.69911277 -53.8203125 75.30078125 C-57.2522848 77.97624353 -60.14495284 81.09465595 -63.125 84.25 C-65 86 -65 86 -68 87 C-69.5529292 88.56555809 -69.5529292 88.56555809 -71 90.4375 C-72.96428932 92.88774632 -74.32070868 94.21380578 -77 96 C-77 96.66 -77 97.32 -77 98 C-77.66 98 -78.32 98 -79 98 C-81.66666667 100.33333333 -81.66666667 100.33333333 -84 103 C-84 103.66 -84 104.32 -84 105 C-85.485 105.495 -85.485 105.495 -87 106 C-87 106.66 -87 107.32 -87 108 C-87.5775 108.2475 -88.155 108.495 -88.75 108.75 C-91.32939979 110.18299988 -93.06121592 111.78424676 -95 114 C-95 114.66 -95 115.32 -95 116 C-95.5775 116.061875 -96.155 116.12375 -96.75 116.1875 C-99.92448483 117.33384174 -101.12848575 119.25956842 -103 122 C-103 122.66 -103 123.32 -103 124 C-104.485 124.495 -104.485 124.495 -106 125 C-106 125.66 -106 126.32 -106 127 C-106.66 127 -107.32 127 -108 127 C-108 127.66 -108 128.32 -108 129 C-108.99 129.33 -109.98 129.66 -111 130 C-111 130.66 -111 131.32 -111 132 C-111.99 132.33 -112.98 132.66 -114 133 C-117.82697153 136.44164373 -117.82697153 136.44164373 -120 141 C-120.66 141 -121.32 141 -122 141 C-122 141.66 -122 142.32 -122 143 C-122.66 143 -123.32 143 -124 143 C-124 143.66 -124 144.32 -124 145 C-124.99 145.33 -125.98 145.66 -127 146 C-127 146.66 -127 147.32 -127 148 C-129.475 148.99 -129.475 148.99 -132 150 C-132 150.66 -132 151.32 -132 152 C-132.99 152.33 -133.98 152.66 -135 153 C-135 153.66 -135 154.32 -135 155 C-135.66 155 -136.32 155 -137 155 C-138.63881452 156.58141421 -138.63881452 156.58141421 -140.3125 158.625 C-140.93769531 159.35589844 -141.56289062 160.08679688 -142.20703125 160.83984375 C-143.26190025 162.11074256 -144.30605314 163.39091743 -145.32421875 164.69140625 C-147.57884019 167.5602435 -149.82805138 169.69856538 -152.8125 171.75 C-153.864375 172.4925 -154.91625 173.235 -156 174 C-156 174.66 -156 175.32 -156 176 C-156.99 176.33 -157.98 176.66 -159 177 C-159.144375 177.639375 -159.28875 178.27875 -159.4375 178.9375 C-159.623125 179.618125 -159.80875 180.29875 -160 181 C-161.75 182 -161.75 182 -164 183 C-166.73219193 184.91859167 -166.73219193 184.91859167 -169 187 C-169 187.66 -169 188.32 -169 189 C-169.99 189.33 -170.98 189.66 -172 190 C-172.78040149 196.00223311 -172.78040149 196.00223311 -170.46484375 201.390625 C-166.82718417 205.51190406 -162.82997515 209.06783069 -158.58203125 212.5390625 C-156.91996133 214.07391226 -155.7575374 215.62393443 -154.5 217.5 C-151.93882791 221.32048594 -148.79464684 224.3905829 -145 227 C-144.34 227 -143.68 227 -143 227 C-142.773125 227.5775 -142.54625 228.155 -142.3125 228.75 C-141.10375091 231.13208919 -141.10375091 231.13208919 -138.8125 232.75 C-135.71590965 235.22727228 -133.34656503 237.96082811 -130.7734375 240.9609375 C-128.30313766 243.8012382 -125.75722889 246.43513592 -123 249 C-122.34 249 -121.68 249 -121 249 C-121 249.66 -121 250.32 -121 251 C-120.34 251 -119.68 251 -119 251 C-118.773125 251.5775 -118.54625 252.155 -118.3125 252.75 C-116.65599487 255.58972308 -114.57432012 256.95224536 -112 259 C-110.42139992 260.7328078 -108.9218962 262.51865235 -107.41796875 264.31640625 C-105.71373415 266.33989141 -103.97446056 268.23708879 -102 270 C-101.34 270 -100.68 270 -100 270 C-99.731875 270.598125 -99.46375 271.19625 -99.1875 271.8125 C-98.00082594 273.99847854 -96.90400887 275.41332594 -95 277 C-94.34 277 -93.68 277 -93 277 C-92.67 278.32 -92.34 279.64 -92 281 C-91.01 281 -90.02 281 -89 281 C-88.938125 281.556875 -88.87625 282.11375 -88.8125 282.6875 C-87.14201171 287.44196668 -82.89918204 290.10667123 -78.9375 292.9375 C-75.36951703 295.53664864 -73.36359763 298.25084513 -71 302 C-69.3603279 303.36639342 -67.69672386 304.70513179 -66 306 C-65.01 307.485 -65.01 307.485 -64 309 C-62.66829135 309.66990618 -61.33483821 310.33635162 -60 311 C-58.39453125 312.59375 -58.39453125 312.59375 -56.8125 314.5 C-56.214375 315.20511719 -55.61625 315.91023438 -55 316.63671875 C-54.34 317.41660156 -53.68 318.19648438 -53 319 C-51.44541905 320.77778936 -49.88275805 322.54854235 -48.3125 324.3125 C-47.58675781 325.13363281 -46.86101562 325.95476562 -46.11328125 326.80078125 C-44.09590958 329.02895245 -44.09590958 329.02895245 -41.79296875 330.60546875 C-40 332 -40 332 -39 335 C-37.26477867 335.98220075 -35.52718378 336.96087203 -33.76953125 337.90234375 C-31.21909048 339.48440524 -29.7597011 341.59507516 -28 344 C-26.84744327 345.15887789 -25.69319034 346.31613145 -24.52929688 347.46362305 C-21.37843293 350.62907432 -18.35913571 353.92219208 -15.3125 357.1875 C-13.97555141 358.61876146 -12.63832464 360.04976313 -11.30078125 361.48046875 C-10.71466064 362.10848389 -10.12854004 362.73649902 -9.5246582 363.38354492 C-6.50219761 366.58798233 -5.32523157 367.37035908 -0.875 367.5625 C4.87451256 367.49432396 7.59923739 365.65885897 11.63671875 361.7265625 C13.20656729 360.10503733 13.20656729 360.10503733 13 358 C13.5775 357.7525 14.155 357.505 14.75 357.25 C17.32939979 355.81700012 19.06121592 354.21575324 21 352 C21 351.34 21 350.68 21 350 C21.89404541 349.60276733 21.89404541 349.60276733 22.80615234 349.19750977 C25.07729944 347.95780617 26.38487544 346.75740799 28.1015625 344.83984375 C28.66987793 344.21489014 29.23819336 343.58993652 29.82373047 342.94604492 C30.41814941 342.2832251 31.01256836 341.62040527 31.625 340.9375 C36.6033506 335.47229311 41.65070108 330.40897417 47.3046875 325.63671875 C47.86414063 325.09660156 48.42359375 324.55648438 49 324 C49 323.34 49 322.68 49 322 C49.5775 321.773125 50.155 321.54625 50.75 321.3125 C53.59591381 319.65238361 54.99841921 317.60812043 57 315 C61.24413028 310.6252811 65.75038882 306.57268421 70.28125 302.5 C72.93410271 300.06059521 75.54174818 297.63638601 78 295 C78 294.34 78 293.68 78 293 C79.32 292.34 80.64 291.68 82 291 C82 290.34 82 289.68 82 289 C82.598125 288.731875 83.19625 288.46375 83.8125 288.1875 C85.99847854 287.00082594 87.41332594 285.90400887 89 284 C89 283.34 89 282.68 89 282 C89.86625 281.9071875 89.86625 281.9071875 90.75 281.8125 C93.91964348 280.66790652 94.99420228 278.67439695 97 276 C97.9075 275.113125 98.815 274.22625 99.75 273.3125 C102.23245165 271.29883759 102.23245165 271.29883759 102 269 C102.99 268.67 103.98 268.34 105 268 C105 267.34 105 266.68 105 266 C105.556875 265.79375 106.11375 265.5875 106.6875 265.375 C109.28627158 263.82978446 110.84609889 261.94419956 112.6953125 259.578125 C114 258 114 258 116.8125 255.4375 C119.25472953 253.19150814 119.25472953 253.19150814 119.3125 250.1875 C119.209375 249.465625 119.10625 248.74375 119 248 C118.34 248 117.68 248 117 248 C117 247.01 117 246.02 117 245 C116.01 244.67 115.02 244.34 114 244 C113.67 243.01 113.34 242.02 113 241 C112.01 241 111.02 241 110 241 C109.67 239.68 109.34 238.36 109 237 C108.34 237 107.68 237 107 237 C109.00767772 230.38988418 111.66522548 226.66859321 116.6875 222 C117.29400391 221.41605469 117.90050781 220.83210937 118.52539062 220.23046875 C120.00565397 218.80848349 121.501276 217.4025149 123 216 C121.68692628 213.10147635 120.27315362 211.01722783 118.03125 208.765625 C117.46019531 208.19199219 116.88914062 207.61835938 116.30078125 207.02734375 C115.70652344 206.44082031 115.11226563 205.85429687 114.5 205.25 C113.90574219 204.64800781 113.31148438 204.04601562 112.69921875 203.42578125 C112.12816406 202.85730469 111.55710937 202.28882813 110.96875 201.703125 C110.18661133 200.92437012 110.18661133 200.92437012 109.38867188 200.12988281 C108.03981731 198.78962453 108.03981731 198.78962453 106 199 C106 196.03 106 193.06 106 190 C107.32 189.34 108.64 188.68 110 188 C110 187.34 110 186.68 110 186 C110.99 185.67 111.98 185.34 113 185 C113.33 184.34 113.66 183.68 114 183 C115.27875 182.938125 116.5575 182.87625 117.875 182.8125 C118.59429687 182.77769531 119.31359375 182.74289063 120.0546875 182.70703125 C121.01761719 182.85205078 121.01761719 182.85205078 122 183 C122.66 183.99 123.32 184.98 124 186 C124.66 186 125.32 186 126 186 C126.226875 186.53625 126.45375 187.0725 126.6875 187.625 C128.42506353 190.76916258 130.64229997 193.2972707 133 196 C133.495 196.639375 133.99 197.27875 134.5 197.9375 C136.01664633 199.22879853 136.01664633 199.22879853 138.375 199 C141.77745228 197.7038277 143.59239472 195.68276017 146 193 C145.113125 192.29875 144.22625 191.5975 143.3125 190.875 C140.09170325 188.201131 137.62076161 185.25824416 135 182 C133.43897509 180.18445841 133.43897509 180.18445841 132 179 C131.34 179 130.68 179 130 179 C129.5359375 177.7934375 129.5359375 177.7934375 129.0625 176.5625 C128.23664655 174.10919595 128.23664655 174.10919595 127 173 C126.63239269 170.67182036 126.29758419 168.3381615 126 166 C126.99 165.67 127.98 165.34 129 165 C129 164.01 129 163.02 129 162 C129.99 161.67 130.98 161.34 132 161 C132 160.34 132 159.68 132 159 C133.32 158.67 134.64 158.34 136 158 C136 157.34 136 156.68 136 156 C134.58542749 154.82693987 133.16714922 153.65814606 131.73364258 152.50830078 C130.02110704 151.01836351 128.64712571 149.48768316 127.19921875 147.7421875 C121.89882628 141.60430079 116.09684015 135.94791483 110.35644531 130.22607422 C108.36927645 128.24429197 106.38754247 126.25718657 104.40625 124.26953125 C103.13313323 122.99707486 101.85970651 121.72492848 100.5859375 120.453125 C99.99936371 119.86452698 99.41278992 119.27592896 98.80844116 118.66949463 C95.67728362 115.55603683 92.45987343 112.75130088 89 110 C87.99797755 108.92041209 87.02938395 107.8087766 86.09765625 106.66796875 C80.86706624 100.55688429 75.10482042 94.95598947 69.41137695 89.28100586 C67.43519886 87.31020512 65.46444452 85.33409344 63.49414062 83.35742188 C62.22427897 82.08822078 60.95410728 80.81932979 59.68359375 79.55078125 C59.10218124 78.96734451 58.52076874 78.38390778 57.92173767 77.78279114 C55.29399554 75.16990507 52.65012046 72.66166404 49.78027344 70.31518555 C47.51358807 68.42767436 45.69333839 66.66755151 43.83203125 64.40625 C39.52485213 59.36323643 34.86896217 54.6828862 30.18237305 49.99707031 C28.66750914 48.47997975 27.16087408 46.95500263 25.65429688 45.4296875 C24.690592 44.46305507 23.72641702 43.49689103 22.76171875 42.53125 C21.89506592 41.66048828 21.02841309 40.78972656 20.13549805 39.89257812 C18.22611233 37.77891383 18.22611233 37.77891383 16 38 C15.74992188 37.41089844 15.49984375 36.82179688 15.2421875 36.21484375 C13.83561753 33.70690295 12.34445666 32.37575422 10.125 30.5625 C6.99698022 27.93315004 4.5325627 25.2144065 2 22 C1.34 22 0.68 22 0 22 Z " fill="#7A1937" transform="translate(247,51)"/>
<path d="M0 0 C1.10410278 0.93714069 2.20687284 1.87585163 3.30909729 2.81520081 C3.92334847 3.33777246 4.53759966 3.8603441 5.17046452 4.39875126 C7.93630884 6.8194776 10.51313059 9.40849711 13.08984375 12.02734375 C13.91217247 12.8553524 13.91217247 12.8553524 14.75111389 13.7000885 C17.06216815 16.02725697 19.36714766 18.36040648 21.67260742 20.69311523 C27.43424323 26.51676553 33.15926626 32.2795815 39.40014648 37.59594727 C41.64899079 39.56956295 43.59567642 41.74818051 45.5625 44 C51.37049514 50.49824923 57.53027588 56.64858232 63.6875 62.8125 C64.43327805 63.56188843 64.43327805 63.56188843 65.19412231 64.32641602 C70.41344673 69.56734475 75.6851449 74.67968076 81.3034668 79.49487305 C83.74990388 81.66529823 85.89855147 84.05104362 88.0625 86.5 C94.74383612 93.95970873 101.87417981 100.96822617 109 108 C107.68 108.33 106.36 108.66 105 109 C104.67 108.01 104.34 107.02 104 106 C99.58389858 107.69672323 99.58389858 107.69672323 96.8125 111.3125 C97.0983263 115.40934365 99.20211903 117.06563703 102 120 C97.83991091 120 96.76711021 118.29799047 93.75 115.5 C92.38101563 114.24703125 92.38101563 114.24703125 90.984375 112.96875 C88.86245906 110.9218159 86.9262519 108.78350973 85.015625 106.5390625 C79.9422192 100.6603542 74.39049355 95.24156136 68.89355469 89.76318359 C67.00079462 87.87579237 65.11345071 85.98310327 63.2265625 84.08984375 C62.00552888 82.86947086 60.78418513 81.64940818 59.5625 80.4296875 C58.73093384 79.59508499 58.73093384 79.59508499 57.88256836 78.74362183 C55.1082463 75.985571 52.28403983 73.3543166 49.29443359 70.82983398 C46.88102436 68.79024971 44.73543279 66.74326996 42.7265625 64.29296875 C38.22998843 59.01432721 33.29775804 54.19044302 28.375 49.3125 C26.9828125 47.92708008 26.9828125 47.92708008 25.5625 46.51367188 C23.83759098 44.79741212 22.11164833 43.08219003 20.38427734 41.3684082 C18.69462239 39.68999917 17.01078829 38.00572098 15.33105469 36.31738281 C12.6311614 33.63332468 9.77675942 31.19715336 6.8671875 28.74609375 C5 27 5 27 3.3828125 24.78515625 C2.92648438 24.19605469 2.47015625 23.60695313 2 23 C1.34 23 0.68 23 0 23 C-0.33 23.66 -0.66 24.32 -1 25 C-1.66 25 -2.32 25 -3 25 C-3.33 25.99 -3.66 26.98 -4 28 C-5.34008789 29.32104492 -5.34008789 29.32104492 -7.16015625 30.79296875 C-13.27345098 35.98128829 -18.85524775 41.70602015 -24.51147461 47.38110352 C-26.45377265 49.32881803 -28.4014314 51.2710593 -30.34960938 53.21289062 C-31.58625875 54.45019983 -32.82259842 55.68781868 -34.05859375 56.92578125 C-34.64080185 57.50596512 -35.22300995 58.08614899 -35.82286072 58.68391418 C-38.77271086 61.56824445 -38.77271086 61.56824445 -41 65 C-41.66 65 -42.32 65 -43 65 C-43.21785156 65.56332031 -43.43570313 66.12664062 -43.66015625 66.70703125 C-45.43959265 69.75230578 -47.69406889 71.48328245 -50.4375 73.6875 C-51.88962891 74.86892578 -51.88962891 74.86892578 -53.37109375 76.07421875 C-56 78 -56 78 -59 79 C-59.68486725 80.32407669 -60.34870203 81.65909241 -61 83 C-62.9375 85.25 -62.9375 85.25 -65 87 C-65.99 87 -66.98 87 -68 87 C-68.20625 87.556875 -68.4125 88.11375 -68.625 88.6875 C-69.96846753 90.94696811 -71.05157702 91.9998656 -73.0625 93.625 C-76.00824713 95.67119397 -76.00824713 95.67119397 -77 98 C-77.66 98 -78.32 98 -79 98 C-79.268125 98.639375 -79.53625 99.27875 -79.8125 99.9375 C-81 102 -81 102 -84 103 C-84 103.66 -84 104.32 -84 105 C-85.57421875 106.55078125 -85.57421875 106.55078125 -87.6875 108.3125 C-90.19802294 110.43644684 -92.60823421 112.55501344 -94.875 114.9375 C-97 117 -97 117 -99 117 C-99.226875 117.53625 -99.45375 118.0725 -99.6875 118.625 C-101.45570089 121.82460161 -103.53670203 124.29037223 -106 127 C-106.66 127 -107.32 127 -108 127 C-108 127.66 -108 128.32 -108 129 C-109.64351457 130.36176922 -111.31522656 131.68962066 -113 133 C-115.70953375 135.58350893 -117.92095344 137.88143016 -120 141 C-120.66 141 -121.32 141 -122 141 C-122 141.66 -122 142.32 -122 143 C-122.66 143 -123.32 143 -124 143 C-124 143.66 -124 144.32 -124 145 C-129.47619048 150 -129.47619048 150 -132 150 C-132 150.66 -132 151.32 -132 152 C-133.375 153.625 -133.375 153.625 -135 155 C-135.66 155 -136.32 155 -137 155 C-137.33 155.99 -137.66 156.98 -138 158 C-138.66 158 -139.32 158 -140 158 C-140.26296875 158.5775 -140.5259375 159.155 -140.796875 159.75 C-144.12841961 165.9804211 -149.14564896 170.227196 -155 174 C-156.37868281 175.62935241 -157.71274093 177.29749607 -159 179 C-161.18232959 181.30029335 -163.28498728 183.49204305 -165.875 185.33203125 C-168.5995674 187.32601908 -170.61423999 188.82746393 -171.69140625 192.1015625 C-172.06881662 196.77502714 -171.00193627 199.55587762 -168 203.125 C-164.77615594 206.41423643 -161.30747976 209.41604148 -157.80078125 212.3984375 C-155.54962998 214.400546 -153.70307712 216.51634587 -152 219 C-152 219.66 -152 220.32 -152 221 C-151.01 221.33 -150.02 221.66 -149 222 C-147.64175118 223.30794331 -146.31543863 224.64900897 -145 226 C-143.81614525 227.00431279 -142.62814469 228.00374628 -141.4375 229 C-137.25543541 232.61035913 -133.5955937 236.60154277 -129.94506836 240.73632812 C-127.80238154 243.14022241 -125.69936367 245.23760637 -123.16796875 247.23828125 C-122.09482422 248.11033203 -122.09482422 248.11033203 -121 249 C-121 249.66 -121 250.32 -121 251 C-120.34 251 -119.68 251 -119 251 C-117.76886297 252.43078087 -116.54377967 253.86778822 -115.3671875 255.34375 C-113.84984826 257.23541111 -113.84984826 257.23541111 -111.3125 259.6875 C-109 262 -109 262 -107 265 C-109.10148204 268.98175544 -111.36905358 271.35039045 -115 274 C-115.33 272.68 -115.66 271.36 -116 270 C-117.32 270.33 -118.64 270.66 -120 271 C-120.87785156 270.01386719 -120.87785156 270.01386719 -121.7734375 269.0078125 C-127.74180035 262.39422123 -133.8958771 255.99469944 -140.1875 249.6875 C-141.30874268 248.55948975 -141.30874268 248.55948975 -142.45263672 247.40869141 C-143.18369629 246.67956543 -143.91475586 245.95043945 -144.66796875 245.19921875 C-145.31016357 244.55815186 -145.9523584 243.91708496 -146.61401367 243.2565918 C-148.60836332 241.37039781 -150.63734425 239.57080434 -152.71386719 237.77734375 C-159.9464806 231.48281072 -166.66574891 224.63639643 -173.46655273 217.88354492 C-175.20801217 216.15879092 -176.95483848 214.43944019 -178.70678711 212.7253418 C-181.24498791 210.24155298 -183.76666569 207.7420341 -186.28515625 205.23828125 C-187.07455093 204.47155594 -187.86394562 203.70483063 -188.67726135 202.91487122 C-189.39228317 202.19699936 -190.10730499 201.4791275 -190.84399414 200.73950195 C-191.79708214 199.79854424 -191.79708214 199.79854424 -192.76942444 198.83857727 C-194 197 -194 197 -193.77298599 195.10423541 C-192.85618466 192.60850347 -191.7420015 191.36920435 -189.86279964 189.49365616 C-189.18851325 188.81339662 -188.51422686 188.13313708 -187.81950754 187.43226361 C-186.69744727 186.32331113 -186.69744727 186.32331113 -185.55271912 185.19195557 C-184.76373909 184.40041226 -183.97475906 183.60886896 -183.16187054 182.79333949 C-180.50489341 180.13140401 -177.83730366 177.48036228 -175.16967773 174.82910156 C-173.26742915 172.9276988 -171.365783 171.02571106 -169.46487427 169.12297058 C-165.36529281 165.02181508 -161.26024865 160.92619382 -157.15145683 156.83426666 C-151.2108266 150.9180041 -145.27848486 144.99348767 -139.3481418 139.0669156 C-129.72664019 129.45198198 -120.09845634 119.84376873 -110.46606445 110.23974609 C-101.10838688 100.90960009 -91.75386127 91.57631248 -82.40356445 82.23876953 C-81.82733703 81.66333028 -81.25110961 81.08789103 -80.65742075 80.49501422 C-77.76671408 77.60822262 -74.87606934 74.72136902 -71.98545539 71.83448458 C-47.99989821 47.88003412 -24.00349483 23.936476 0 0 Z " fill="#771635" transform="translate(247,51)"/>
<path d="M0 0 C0.66 0.66 1.32 1.32 2 2 C3.33076989 2.34342449 4.66431979 2.67619874 6 3 C6.99 3.66 7.98 4.32 9 5 C9 5.66 9 6.32 9 7 C9.66 7 10.32 7 11 7 C14 10.46153846 14 10.46153846 14 13 C14.99 13 15.98 13 17 13 C18.39300182 14.95890881 19.72245446 16.9639118 21 19 C22.63803533 20.91104121 23.69273086 21.86556975 26 22.875 C28 24 28 24 29.3125 26.25 C31.2643524 29.43079651 33.51089496 31.33038535 36.37890625 33.66796875 C38 35 38 35 40 37 C39.52611556 43.40270533 34.85719954 47.37865419 30.34375 51.51953125 C28.24086382 53.29518259 26.08212591 54.94368509 23.8125 56.5 C21.56038451 58.36381972 20.47662832 60.49615198 19 63 C16 65 16 65 13 65 C12.7525 65.53625 12.505 66.0725 12.25 66.625 C9.24209508 72.34001935 6.43168742 75.49957922 1 79 C0.67 79.99 0.34 80.98 0 82 C-1.97956942 83.69088222 -3.97945196 85.35830472 -6 87 C-6.33 87.66 -6.66 88.32 -7 89 C-7.99 89 -8.98 89 -10 89 C-10 89.99 -10 90.98 -10 92 C-10.61875 92.0825 -11.2375 92.165 -11.875 92.25 C-14.18437567 92.81258459 -14.18437567 92.81258459 -15.25 95.0625 C-15.62125 96.0215625 -15.62125 96.0215625 -16 97 C-16.33 97 -16.66 97 -17 97 C-17 95.35 -17 93.7 -17 92 C-17.66 92 -18.32 92 -19 92 C-19 91.01 -19 90.02 -19 89 C-20.32 88.67 -21.64 88.34 -23 88 C-23 87.01 -23 86.02 -23 85 C-23.99 85 -24.98 85 -26 85 C-26.33 84.01 -26.66 83.02 -27 82 C-27.66 81.67 -28.32 81.34 -29 81 C-28.88485674 75.03557889 -27.17626017 72.51843294 -22.93554688 68.40820312 C-21.94651367 67.49458008 -21.94651367 67.49458008 -20.9375 66.5625 C-19.94266602 65.60827148 -19.94266602 65.60827148 -18.92773438 64.63476562 C-17.29794187 63.07532388 -15.65586432 61.53165061 -14 60 C-15.27077948 57.21679812 -16.57952851 55.17140495 -18.75 53.01953125 C-19.2759375 52.49552734 -19.801875 51.97152344 -20.34375 51.43164062 C-20.8903125 50.89732422 -21.436875 50.36300781 -22 49.8125 C-22.5465625 49.26658203 -23.093125 48.72066406 -23.65625 48.15820312 C-26.55762107 45.22049968 -26.55762107 45.22049968 -30 43 C-30.92132701 35.16872038 -30.92132701 35.16872038 -28.734375 32.39453125 C-27.2097743 31.19187293 -25.60576998 30.09192359 -24 29 C-23.34 28.01 -22.68 27.02 -22 26 C-18.68940024 25.38276954 -17.13132621 25.09489494 -14 26 C-11.18630958 28.32802528 -8.97320611 30.92919799 -7 34 C-7 34.66 -7 35.32 -7 36 C-5.515 36.495 -5.515 36.495 -4 37 C-1.8125 38.9375 -1.8125 38.9375 0 41 C0 41.66 0 42.32 0 43 C4.89562693 41.12297673 4.89562693 41.12297673 9 38 C8.505 37.54625 8.01 37.0925 7.5 36.625 C6 35 6 35 6 33 C5.01 32.67 4.02 32.34 3 32 C3 31.34 3 30.68 3 30 C2.01 29.67 1.02 29.34 0 29 C-2.1875 27.0625 -2.1875 27.0625 -4 25 C-4 24.34 -4 23.68 -4 23 C-4.66 23 -5.32 23 -6 23 C-9.65083143 18.5975268 -10.45374191 15.67177385 -10 10 C-9.34 9.67 -8.68 9.34 -8 9 C-7.67 8.01 -7.34 7.02 -7 6 C-2.54285714 2 -2.54285714 2 0 2 C0 1.34 0 0.68 0 0 Z " fill="#A71E4C" transform="translate(383,207)"/>
<path d="M0 0 C4.91935902 4.11619836 9.52647956 8.40410362 14 13 C13.01 13.33 12.02 13.66 11 14 C10.01 13.01 9.02 12.02 8 11 C7.34 11.66 6.68 12.32 6 13 C4.68 13 3.36 13 2 13 C2 13.66 2 14.32 2 15 C1.01 15 0.02 15 -1 15 C-1.33 16.32 -1.66 17.64 -2 19 C-4.64 16.69 -7.28 14.38 -10 12 C-9 10 -9 10 -7 8 C-6.34 7.01 -5.68 6.02 -5 5 C-3.68 5 -2.36 5 -1 5 C-0.67 3.35 -0.34 1.7 0 0 Z " fill="#7D2A45" transform="translate(262,66)"/>
<path d="M0 0 C0.66 0.33 1.32 0.66 2 1 C-0.38238999 5.45152454 -3.39293132 8.72701822 -6.9375 12.25 C-7.46279297 12.79140625 -7.98808594 13.3328125 -8.52929688 13.890625 C-12.51442123 17.88073699 -12.51442123 17.88073699 -15.12719727 18.52246094 C-15.74522217 18.68004883 -16.36324707 18.83763672 -17 19 C-17.28875 19.721875 -17.5775 20.44375 -17.875 21.1875 C-19.38237097 24.95592743 -21.76768684 27.55643311 -25 30 C-27.1953125 30.671875 -27.1953125 30.671875 -29 31 C-27.50958227 27.20620942 -25.30937488 25.31656242 -22 23 C-21.34 23 -20.68 23 -20 23 C-19.34 21.35 -18.68 19.7 -18 18 C-17.34 18 -16.68 18 -16 18 C-15.67 17.01 -15.34 16.02 -15 15 C-13.3984375 13.7109375 -13.3984375 13.7109375 -11.375 12.375 C-6.60236283 8.96351206 -3.37678879 4.74860924 0 0 Z " fill="#D9245F" transform="translate(107,209)"/>
<path d="M0 0 C0.33 0.66 0.66 1.32 1 2 C-0.02592626 5.07777878 -0.75469244 5.84450474 -3 8 C-3.99 9.485 -3.99 9.485 -5 11 C-5.66 11 -6.32 11 -7 11 C-7.226875 11.763125 -7.45375 12.52625 -7.6875 13.3125 C-9.28096179 16.5753027 -10.76338336 17.46260709 -14 19 C-14.66 19 -15.32 19 -16 19 C-16 19.99 -16 20.98 -16 22 C-17.32 21.34 -18.64 20.68 -20 20 C-13.4 13.4 -6.8 6.8 0 0 Z " fill="#7C3B4E" transform="translate(122,176)"/>
<path d="M0 0 C0.99 0.33 1.98 0.66 3 1 C-3.27 7.27 -9.54 13.54 -16 20 C-21 18 -21 18 -23 15 C-20.36 15.33 -17.72 15.66 -15 16 C-15 15.34 -15 14.68 -15 14 C-11.53846154 11 -11.53846154 11 -9 11 C-9 9.68 -9 8.36 -9 7 C-7.35 6.67 -5.7 6.34 -4 6 C-4 5.34 -4 4.68 -4 4 C-3.34 4 -2.68 4 -2 4 C-2 3.34 -2 2.68 -2 2 C-1.34 2 -0.68 2 0 2 C0 1.34 0 0.68 0 0 Z " fill="#7F4154" transform="translate(265,421)"/>
<path d="M0 0 C-1.28519565 2.86697492 -2.57129254 4.97607712 -5 7 C-5.66 7 -6.32 7 -7 7 C-7.66 8.32 -8.32 9.64 -9 11 C-9.66 11 -10.32 11 -11 11 C-11.33 11.99 -11.66 12.98 -12 14 C-15.40638274 17.64839927 -19.11063933 20.96744518 -22.8125 24.3125 C-23.78832031 25.19550781 -24.76414062 26.07851563 -25.76953125 26.98828125 C-26.87361328 27.98408203 -26.87361328 27.98408203 -28 29 C-28.66 28.67 -29.32 28.34 -30 28 C-29.0479279 26.99403703 -28.08812654 25.99538437 -27.125 25 C-26.59132813 24.443125 -26.05765625 23.88625 -25.5078125 23.3125 C-24 22 -24 22 -22 22 C-21.67 21.01 -21.34 20.02 -21 19 C-20.34 19 -19.68 19 -19 19 C-18.7525 18.38125 -18.505 17.7625 -18.25 17.125 C-16.77229238 14.61289704 -15.56044823 14.23892656 -13 13 C-12.67 12.01 -12.34 11.02 -12 10 C-10.0625 7.8125 -10.0625 7.8125 -8 6 C-7.34 6 -6.68 6 -6 6 C-5.67 4.35 -5.34 2.7 -5 1 C-2 0 -2 0 0 0 Z " fill="#D13466" transform="translate(336,333)"/>
<path d="M0 0 C0 3.38023517 -0.87455622 5.83468937 -2 9 C-2.66 9 -3.32 9 -4 9 C-3.67 10.32 -3.34 11.64 -3 13 C-4.65 12.67 -6.3 12.34 -8 12 C-8.226875 12.61875 -8.45375 13.2375 -8.6875 13.875 C-10.39877291 16.64563234 -11.90815414 17.14974239 -15 18 C-15.66 17.67 -16.32 17.34 -17 17 C-11.39 11.39 -5.78 5.78 0 0 Z " fill="#905666" transform="translate(146,152)"/>
<path d="M0 0 C0.66 0 1.32 0 2 0 C1.75869844 4.10212652 1.52105164 6.38962522 -1.1875 9.5625 C-2.115625 10.366875 -3.04375 11.17125 -4 12 C-5.06771812 13.0991216 -6.13019074 14.20336186 -7.1875 15.3125 C-10 18 -10 18 -12 18 C-12.33 18.99 -12.66 19.98 -13 21 C-13.66 21 -14.32 21 -15 21 C-15.309375 21.61875 -15.61875 22.2375 -15.9375 22.875 C-16.625 24.25 -17.3125 25.625 -18 27 C-18.66 26.67 -19.32 26.34 -20 26 C-19.505 24.515 -19.505 24.515 -19 23 C-18.34 23 -17.68 23 -17 23 C-16.938125 22.236875 -16.87625 21.47375 -16.8125 20.6875 C-15.72276798 17.0830018 -14.21994616 16.86041334 -11 15 C-9.38792552 13.27218684 -7.91087998 11.46720524 -6.421875 9.6328125 C-5 8 -5 8 -2.6875 6.375 C-0.39219921 4.50475491 -0.31003998 2.86786984 0 0 Z " fill="#CC2E61" transform="translate(364,299)"/>
<path d="M0 0 C0 0.66 0 1.32 0 2 C-3.3 2.33 -6.6 2.66 -10 3 C-10.226875 3.9075 -10.45375 4.815 -10.6875 5.75 C-12.19878665 9.4922336 -13.62382838 10.85901312 -17 13 C-17.99 13 -18.98 13 -20 13 C-19.67 14.32 -19.34 15.64 -19 17 C-20.65 16.67 -22.3 16.34 -24 16 C-10.52519894 -0.16976127 -10.52519894 -0.16976127 0 0 Z " fill="#E14E87" transform="translate(336,266)"/>
<path d="M0 0 C0.99 0.33 1.98 0.66 3 1 C-1.23816537 6.06623768 -5.67408963 10.80038069 -10.375 15.4375 C-11.01566406 16.07365234 -11.65632813 16.70980469 -12.31640625 17.36523438 C-13.87530879 18.91250332 -15.43651416 20.45736492 -17 22 C-17.33 21.01 -17.66 20.02 -18 19 C-16.59419724 17.34487752 -15.17493734 15.70117794 -13.75 14.0625 C-12.96109375 13.14597656 -12.1721875 12.22945313 -11.359375 11.28515625 C-9.08748967 9.08473751 -8.07680978 8.33167445 -5 8 C-4.67 6.68 -4.34 5.36 -4 4 C-3.01 4 -2.02 4 -1 4 C-0.67 2.68 -0.34 1.36 0 0 Z " fill="#7D354D" transform="translate(314,371)"/>
<path d="M0 0 C0.66 0 1.32 0 2 0 C2 3.63 2 7.26 2 11 C3.32 11.33 4.64 11.66 6 12 C7.59765625 13.7421875 7.59765625 13.7421875 9.0625 15.875 C10.88448707 18.49440846 12.67606778 20.80709067 15 23 C14.67 23.66 14.34 24.32 14 25 C10.94748595 22.38840465 7.95595397 19.72043894 5 17 C4.36191406 16.41476562 3.72382812 15.82953125 3.06640625 15.2265625 C-0.14178296 11.94913179 -1.36397279 9.77927234 -1.4375 5.125 C-1.21903052 1.21903052 -1.21903052 1.21903052 0 0 Z " fill="#D42D63" transform="translate(76,240)"/>
<path d="M0 0 C0.66 0.33 1.32 0.66 2 1 C-0.69798181 5.72146818 -3.54126425 8.28990004 -7.9609375 11.41015625 C-11.1175523 13.87134825 -13.54577581 16.85784933 -16 20 C-16.66 19.67 -17.32 19.34 -18 19 C-15.47650042 13.32212594 -12.25055656 10.15033394 -7 7 C-5.63755204 5.35704805 -4.30135125 3.69175663 -3 2 C-2.01 1.34 -1.02 0.68 0 0 Z " fill="#D22C5F" transform="translate(191,128)"/>
<path d="M0 0 C1 3 1 3 0.3125 5.0625 C-1.23409045 7.34556209 -2.57428449 7.78714225 -5 9 C-5.33 9.680625 -5.66 10.36125 -6 11.0625 C-7 13 -7 13 -9.125 13.75 C-10.053125 13.87375 -10.053125 13.87375 -11 14 C-11 14.66 -11 15.32 -11 16 C-12.65 16.33 -14.3 16.66 -16 17 C-11.01595832 10.96668638 -5.58084697 5.4815829 0 0 Z " fill="#7F4459" transform="translate(216,82)"/>
<path d="M0 0 C0.66 0.99 1.32 1.98 2 3 C1.2575 3.53625 0.515 4.0725 -0.25 4.625 C-3.14154296 6.89409631 -3.14154296 6.89409631 -5 10.125 C-7.16493344 13.23709182 -8.41523819 14.00423283 -12 15 C-9.87209933 8.42285246 -5.45517519 4.05241586 0 0 Z " fill="#DE4276" transform="translate(240,214)"/>
<path d="M0 0 C0 2.58944891 -0.23850972 4.56587559 -0.8125 7.0625 C-0.96332031 7.75472656 -1.11414063 8.44695312 -1.26953125 9.16015625 C-2 11 -2 11 -5 13 C-8.1875 12.625 -8.1875 12.625 -11 12 C-7.49102731 7.81576108 -3.91939465 3.80411834 0 0 Z " fill="#E45988" transform="translate(288,305)"/>
<path d="M0 0 C0 3 0 3 -1.94140625 5.19921875 C-2.80636719 6.02035156 -3.67132813 6.84148437 -4.5625 7.6875 C-8.50063443 11.49157028 -12.14910435 15.3736702 -15.625 19.6015625 C-16.07875 20.06304687 -16.5325 20.52453125 -17 21 C-17.66 21 -18.32 21 -19 21 C-19 21.66 -19 22.32 -19 23 C-19.99 23.33 -20.98 23.66 -22 24 C-20.55922954 20.63820226 -18.75249979 18.40843732 -16 16 C-15.34 16 -14.68 16 -14 16 C-14 15.34 -14 14.68 -14 14 C-13.34 14 -12.68 14 -12 14 C-11.835 13.319375 -11.67 12.63875 -11.5 11.9375 C-9.27821187 7.58649824 -5.71737106 5.07457564 -2 2 C-1.34 1.34 -0.68 0.68 0 0 Z " fill="#D2537A" transform="translate(287,380)"/>
<path d="M0 0 C0.33 1.32 0.66 2.64 1 4 C0.0409375 4.37125 0.0409375 4.37125 -0.9375 4.75 C-3.19635114 5.78813195 -3.19635114 5.78813195 -3.5 8 C-3.665 8.66 -3.83 9.32 -4 10 C-6 11.125 -6 11.125 -8 12 C-8.33 12.66 -8.66 13.32 -9 14 C-11.5625 14.625 -11.5625 14.625 -14 15 C-9.59156563 9.70987876 -4.92440206 4.81191572 0 0 Z " fill="#80485C" transform="translate(88,210)"/>
<path d="M0 0 C3.13072367 1.37729565 5.13688227 2.93676258 7.453125 5.44140625 C8.071875 6.10720703 8.690625 6.77300781 9.328125 7.45898438 C9.96234375 8.15314453 10.5965625 8.84730469 11.25 9.5625 C11.8996875 10.26052734 12.549375 10.95855469 13.21875 11.67773438 C18 16.85574777 18 16.85574777 18 18 C16.02 18 14.04 18 12 18 C11.22227595 15.66682784 10.57584432 13.38564077 10 11 C9.34 11 8.68 11 8 11 C6.97862543 9.34634594 5.98387706 7.67623498 5 6 C3.39156026 3.94370129 1.70361321 1.97987481 0 0 Z " fill="#A27081" transform="translate(280,84)"/>
<path d="M0 0 C7.66633525 2.32313189 12.97348939 8.33109181 17 15 C16.67 15.99 16.34 16.98 16 18 C15.43152344 17.35933594 14.86304688 16.71867187 14.27734375 16.05859375 C10.04892752 11.32192048 5.78760533 6.68420015 1.21484375 2.27734375 C0 1 0 1 0 0 Z " fill="#6D3447" transform="translate(152,345)"/>
<path d="M0 0 C0.66 0 1.32 0 2 0 C0.34136495 4.32504836 -2.871041 7.09418825 -6.125 10.25 C-6.68832031 10.80429687 -7.25164062 11.35859375 -7.83203125 11.9296875 C-9.21686028 13.29104485 -10.60783204 14.64614859 -12 16 C-12.625 14.1875 -12.625 14.1875 -13 12 C-12.34 11.01 -11.68 10.02 -11 9 C-10.175 8.855625 -9.35 8.71125 -8.5 8.5625 C-5.85661736 8.2745206 -5.85661736 8.2745206 -4.75 6.0625 C-4.5025 5.381875 -4.255 4.70125 -4 4 C-3.67 3.34 -3.34 2.68 -3 2 C-2.01 2 -1.02 2 0 2 C0 1.34 0 0.68 0 0 Z " fill="#7D364F" transform="translate(429,257)"/>
<path d="M0 0 C0.33 1.65 0.66 3.3 1 5 C-0.32 5.33 -1.64 5.66 -3 6 C-3.66 4.68 -4.32 3.36 -5 2 C-5.99 2 -6.98 2 -8 2 C-8.33 3.32 -8.66 4.64 -9 6 C-9.66 5.67 -10.32 5.34 -11 5 C-11 5.66 -11 6.32 -11 7 C-11.66 6.67 -12.32 6.34 -13 6 C-9.04608494 0.06912741 -7.07897132 -0.71989539 0 0 Z " fill="#AC4A6B" transform="translate(369,233)"/>
<path d="M0 0 C0.33 0.66 0.66 1.32 1 2 C-0.47169811 5.73584906 -0.47169811 5.73584906 -3 7 C-4.99960012 7.039992 -7.00047242 7.04346799 -9 7 C-9.33 5.35 -9.66 3.7 -10 2 C-9.04287109 1.90912109 -9.04287109 1.90912109 -8.06640625 1.81640625 C-6.82697266 1.69072266 -6.82697266 1.69072266 -5.5625 1.5625 C-4.73878906 1.48128906 -3.91507813 1.40007812 -3.06640625 1.31640625 C-1.01337975 1.21069185 -1.01337975 1.21069185 0 0 Z " fill="#A01944" transform="translate(253,416)"/>
<path d="M0 0 C4.40224762 1.41727037 6.99422996 3.56160387 10.25 6.8125 C11.55710938 8.09060547 11.55710938 8.09060547 12.890625 9.39453125 C15.06195155 12.07652164 15.68375021 13.61247826 16 17 C15.29488281 16.29359375 14.58976563 15.5871875 13.86328125 14.859375 C11.95076988 12.94618902 10.03091117 11.04079234 8.10546875 9.140625 C7.13280027 8.17709568 6.16014408 7.21355395 5.1875 6.25 C4.68541016 5.75628906 4.18332031 5.26257813 3.66601562 4.75390625 C2.4250615 3.52139399 1.20996878 2.26294465 0 1 C0 0.67 0 0.34 0 0 Z " fill="#6C3647" transform="translate(196,389)"/>
<path d="M0 0 C0 3 0 3 -2 6 C-2.99 6.33 -3.98 6.66 -5 7 C-6.36892281 8.99116046 -7.47171693 11.06323921 -8.62109375 13.1875 C-10.30722469 15.40383075 -11.32482406 15.52286441 -14 16 C-15.73026102 17.47890069 -15.73026102 17.47890069 -17 19 C-17.66 18.67 -18.32 18.34 -19 18 C-18.27554687 17.35933594 -17.55109375 16.71867187 -16.8046875 16.05859375 C-11.48218308 11.29672647 -6.56684221 6.50363036 -2 1 C-1.34 0.67 -0.68 0.34 0 0 Z " fill="#87193B" transform="translate(327,343)"/>
<path d="M0 0 C0.66 0.33 1.32 0.66 2 1 C1.28904804 5.66755415 -1.38045308 7.58534152 -4.85546875 10.515625 C-7.52850942 12.36581709 -9.76264184 12.91906605 -13 13 C-12.67 12.34 -12.34 11.68 -12 11 C-11.34 11 -10.68 11 -10 11 C-10 10.34 -10 9.68 -10 9 C-9.195625 8.731875 -8.39125 8.46375 -7.5625 8.1875 C-6.716875 7.795625 -5.87125 7.40375 -5 7 C-4.67 6.01 -4.34 5.02 -4 4 C-3.34 4 -2.68 4 -2 4 C-2 3.34 -2 2.68 -2 2 C-1.34 2 -0.68 2 0 2 C0 1.34 0 0.68 0 0 Z " fill="#D1235C" transform="translate(125,192)"/>
<path d="M0 0 C0.33 0.66 0.66 1.32 1 2 C0.67 2.99 0.34 3.98 0 5 C-0.66 5 -1.32 5 -2 5 C-2.2475 5.5775 -2.495 6.155 -2.75 6.75 C-4.2127149 9.38288682 -5.63826769 11.12450669 -8 13 C-9.32 12.67 -10.64 12.34 -12 12 C-8.04 8.04 -4.08 4.08 0 0 Z " fill="#844D5E" transform="translate(199,99)"/>
<path d="M0 0 C0 3.88064276 -0.99322915 6.59052082 -3.25 9.75 C-5.70407608 11.50291148 -8.04474096 11.67163788 -11 12 C-7.49102731 7.81576108 -3.91939465 3.80411834 0 0 Z " fill="#884A5C" transform="translate(186,112)"/>
<path d="M0 0 C0.33 0.66 0.66 1.32 1 2 C0.67 2.66 0.34 3.32 0 4 C-0.66 4 -1.32 4 -2 4 C-2.20625 4.70125 -2.4125 5.4025 -2.625 6.125 C-4.38593227 9.8069493 -6.74008111 12.53556371 -10 15 C-12.1953125 15.671875 -12.1953125 15.671875 -14 16 C-12.50958227 12.20620942 -10.30937488 10.31656242 -7 8 C-6.34 8 -5.68 8 -5 8 C-4.34 6.35 -3.68 4.7 -3 3 C-2.34 3 -1.68 3 -1 3 C-0.67 2.01 -0.34 1.02 0 0 Z " fill="#CB2259" transform="translate(92,224)"/>
<path d="M0 0 C0 0.99 0 1.98 0 3 C-2.53184488 5.35723489 -3.47190093 6 -7 6 C-7.2475 6.53625 -7.495 7.0725 -7.75 7.625 C-11.98935678 15.67977788 -11.98935678 15.67977788 -15.1328125 16.67578125 C-15.74898438 16.78277344 -16.36515625 16.88976562 -17 17 C-11.02623585 7.3927092 -11.02623585 7.3927092 -6 4 C-5.45730469 3.63003906 -4.91460937 3.26007813 -4.35546875 2.87890625 C-2.91422662 1.90345198 -1.4583791 0.9496422 0 0 Z " fill="#911D44" transform="translate(403,266)"/>
<path d="M0 0 C1.34164079 0.2981424 2.67323492 0.64141484 4 1 C5.299375 1.3403125 5.299375 1.3403125 6.625 1.6875 C9 3 9 3 10.3125 6.125 C10.6528125 7.548125 10.6528125 7.548125 11 9 C8 9 8 9 5.95703125 7.28515625 C5.24933594 6.55167969 4.54164062 5.81820313 3.8125 5.0625 C3.09707031 4.33160156 2.38164063 3.60070312 1.64453125 2.84765625 C0 1 0 1 0 0 Z " fill="#793C4E" transform="translate(76,270)"/>
<path d="M0 0 C0.33 0.66 0.66 1.32 1 2 C0.0625 4.125 0.0625 4.125 -1 6 C-1.99 6 -2.98 6 -4 6 C-3.67 7.32 -3.34 8.64 -3 10 C-4.32 10 -5.64 10 -7 10 C-7.33 11.32 -7.66 12.64 -8 14 C-9.32 13.34 -10.64 12.68 -12 12 C-8.04 8.04 -4.08 4.08 0 0 Z " fill="#8D5266" transform="translate(168,130)"/>
<path d="M0 0 C0.66 0.33 1.32 0.66 2 1 C-2 7.57142857 -2 7.57142857 -6 9 C-6 9.66 -6 10.32 -6 11 C-7.65 11.33 -9.3 11.66 -11 12 C-10.0919838 10.86800647 -9.17316174 9.74467637 -8.25 8.625 C-7.73953125 7.99851562 -7.2290625 7.37203125 -6.703125 6.7265625 C-5 5 -5 5 -2.859375 3.9609375 C-0.64209631 3.08895682 -0.64209631 3.08895682 0 0 Z " fill="#E07499" transform="translate(203,250)"/>
<path d="M0 0 C1.1055189 0.93590504 2.20935453 1.87379858 3.3125 2.8125 C3.92738281 3.33457031 4.54226563 3.85664063 5.17578125 4.39453125 C9.97325976 8.61672326 9.97325976 8.61672326 10.1875 11.6875 C10.125625 12.450625 10.06375 13.21375 10 14 C9.01 14 8.02 14 7 14 C6.38125 12.14375 6.38125 12.14375 5.75 10.25 C4.42323556 6.65694414 2.87647849 4.57891175 0 2 C0 1.34 0 0.68 0 0 Z " fill="#66122E" transform="translate(363,168)"/>
<path d="M0 0 C-1.49769086 4.04376531 -4.19917908 7.01592367 -8 9 C-11.05085571 9.40313102 -13.94349754 9.30565025 -17 9 C-17 8.67 -17 8.34 -17 8 C-12.545 7.505 -12.545 7.505 -8 7 C-7.67 5.68 -7.34 4.36 -7 3 C-2.82142857 0 -2.82142857 0 0 0 Z " fill="#D12E62" transform="translate(260,409)"/>
<path d="M0 0 C1.32 0.33 2.64 0.66 4 1 C3.8125 2.875 3.8125 2.875 3 5 C0.8125 6.125 0.8125 6.125 -2 7 C-3.6396875 7.556875 -3.6396875 7.556875 -5.3125 8.125 C-6.6428125 8.558125 -6.6428125 8.558125 -8 9 C-7.01 7.35 -6.02 5.7 -5 4 C-3.68 4.33 -2.36 4.66 -1 5 C-0.67 3.35 -0.34 1.7 0 0 Z " fill="#68112C" transform="translate(161,139)"/>
<path d="M0 0 C0.66 0.33 1.32 0.66 2 1 C1.67 1.66 1.34 2.32 1 3 C0.34 3 -0.32 3 -1 3 C-1.268125 3.804375 -1.53625 4.60875 -1.8125 5.4375 C-2.204375 6.283125 -2.59625 7.12875 -3 8 C-3.99 8.33 -4.98 8.66 -6 9 C-7.20882096 11.00016466 -7.20882096 11.00016466 -8 13 C-9.32 12.67 -10.64 12.34 -12 12 C-10.824375 11.1028125 -10.824375 11.1028125 -9.625 10.1875 C-6.85425677 8.08914751 -6.85425677 8.08914751 -5 5 C-4.34 5 -3.68 5 -3 5 C-2.67 4.01 -2.34 3.02 -2 2 C-1.34 2 -0.68 2 0 2 C0 1.34 0 0.68 0 0 Z " fill="#CD255C" transform="translate(139,178)"/>
<path d="M0 0 C4.29718953 1.38914475 6.70687757 3.38031985 9.8125 6.625 C10.99779297 7.85089844 10.99779297 7.85089844 12.20703125 9.1015625 C12.79871094 9.72804687 13.39039063 10.35453125 14 11 C13.34 11.66 12.68 12.32 12 13 C9.99698146 11.0238076 7.99750133 9.04425526 6 7.0625 C5.42765625 6.49853516 4.8553125 5.93457031 4.265625 5.35351562 C2.82474495 3.92121224 1.41012857 2.46258871 0 1 C0 0.67 0 0.34 0 0 Z " fill="#774256" transform="translate(322,146)"/>
<path d="M0 0 C0.99 0.33 1.98 0.66 3 1 C-0.67832017 5.52615993 -4.41086363 9.39424999 -9 13 C-9 12.01 -9 11.02 -9 10 C-8.34 10 -7.68 10 -7 10 C-7 9.34 -7 8.68 -7 8 C-6.34 8 -5.68 8 -5 8 C-4.9175 7.4225 -4.835 6.845 -4.75 6.25 C-3.79468987 3.3840696 -2.21530827 2.0009236 0 0 Z " fill="#81394F" transform="translate(346,339)"/>
<path d="M0 0 C0 0.66 0 1.32 0 2 C-3.3 2.33 -6.6 2.66 -10 3 C-10.33 4.32 -10.66 5.64 -11 7 C-12.65 7.33 -14.3 7.66 -16 8 C-15.04578192 6.85073734 -14.08647955 5.70569459 -13.125 4.5625 C-12.59132813 3.92441406 -12.05765625 3.28632813 -11.5078125 2.62890625 C-8.19008942 -0.95526609 -4.5936525 -0.07409117 0 0 Z " fill="#E36C9A" transform="translate(336,266)"/>
<path d="M0 0 C3.26008643 3.16952847 6.22237877 6.39937989 9 10 C7.02 10 5.04 10 3 10 C3 8.68 3 7.36 3 6 C1.68 5.34 0.36 4.68 -1 4 C-0.67 2.68 -0.34 1.36 0 0 Z " fill="#E05584" transform="translate(171,258)"/>
<path d="M0 0 C0 3.30941204 -0.40339294 5.11090151 -2 8 C-4.625 8.8125 -4.625 8.8125 -7 9 C-7.33 9.99 -7.66 10.98 -8 12 C-8.99 12 -9.98 12 -11 12 C-11 11.34 -11 10.68 -11 10 C-9.35546875 8.37890625 -9.35546875 8.37890625 -7.1875 6.5625 C-4.68897282 4.45536324 -2.2757944 2.34758602 0 0 Z " fill="#DF749C" transform="translate(311,282)"/>
<path d="M0 0 C2.64 1.32 5.28 2.64 8 4 C8 4.66 8 5.32 8 6 C8.99 6.33 9.98 6.66 11 7 C11.33 7.99 11.66 8.98 12 10 C11.34 10 10.68 10 10 10 C9.67 9.34 9.34 8.68 9 8 C7.22044762 6.94668566 7.22044762 6.94668566 5.125 6 C2.55892982 4.78798161 0.38096302 3.58730868 -2 2 C-1.34 1.34 -0.68 0.68 0 0 Z " fill="#E38FAC" transform="translate(194,125)"/>
<path d="M0 0 C4.52615993 3.67832017 8.39424999 7.41086363 12 12 C9 12 9 12 6 10 C6 9.01 6 8.02 6 7 C5.01 7 4.02 7 3 7 C0 2.77777778 0 2.77777778 0 0 Z " fill="#82455A" transform="translate(310,114)"/>
<path d="M0 0 C4.5177817 1.46163526 7.64442824 3.64442824 11 7 C11.875 10.3125 11.875 10.3125 12 13 C10.85872377 11.85872377 9.71776264 10.71713121 8.578125 9.57421875 C7.42694314 8.42588635 6.26987213 7.28344889 5.109375 6.14453125 C4.47515625 5.51933594 3.8409375 4.89414062 3.1875 4.25 C2.58292969 3.65703125 1.97835937 3.0640625 1.35546875 2.453125 C0 1 0 1 0 0 Z " fill="#7B4A5A" transform="translate(116,309)"/>
<path d="M0 0 C0.66 1.32 1.32 2.64 2 4 C0.35 5.65 -1.3 7.3 -3 9 C-4.32 8.34 -5.64 7.68 -7 7 C-4.69 4.69 -2.38 2.38 0 0 Z " fill="#E35A8A" transform="translate(296,297)"/>
<path d="M0 0 C0.33 0.66 0.66 1.32 1 2 C-0.02791832 5.08375495 -0.70106836 5.87790925 -3 8 C-3.474375 8.5775 -3.94875 9.155 -4.4375 9.75 C-5.2109375 10.36875 -5.2109375 10.36875 -6 11 C-7.32 10.67 -8.64 10.34 -10 10 C-6.7 6.7 -3.4 3.4 0 0 Z " fill="#8E5267" transform="translate(122,176)"/>
<path d="M0 0 C0.99 0 1.98 0 3 0 C4.60725635 3.21451269 4.05748185 6.43612536 4 10 C3.01 10.495 3.01 10.495 2 11 C2 9.02 2 7.04 2 5 C1.01 4.67 0.02 4.34 -1 4 C-0.67 2.68 -0.34 1.36 0 0 Z " fill="#E25183" transform="translate(225,156)"/>
<path d="M0 0 C1.65 0 3.3 0 5 0 C3.625 2 3.625 2 2 4 C1.34 4 0.68 4 0 4 C-0.33 4.99 -0.66 5.98 -1 7 C-3.0625 8.1875 -3.0625 8.1875 -5 9 C-5 5.47967572 -4.29648649 4.5614657 -2 2 C-1.34 2 -0.68 2 0 2 C0 1.34 0 0.68 0 0 Z " fill="#91586A" transform="translate(244,72)"/>
<path d="M0 0 C0.99 0.33 1.98 0.66 3 1 C2.21625 1.721875 1.4325 2.44375 0.625 3.1875 C-1.89116255 5.88338845 -2.72965661 7.64266391 -4 11 C-4.99 11.66 -5.98 12.32 -7 13 C-6.67 11.35 -6.34 9.7 -6 8 C-5.34 8 -4.68 8 -4 8 C-4 6.68 -4 5.36 -4 4 C-2 1.75 -2 1.75 0 0 Z " fill="#D23366" transform="translate(268,396)"/>
<path d="M0 0 C0.33 1.32 0.66 2.64 1 4 C0.01 4.33 -0.98 4.66 -2 5 C-2.928125 6.2375 -2.928125 6.2375 -3.875 7.5 C-6.27135597 10.31924232 -7.3967764 10.69973137 -11 11 C-10.34 10.01 -9.68 9.02 -9 8 C-8.34 8 -7.68 8 -7 8 C-7 7.34 -7 6.68 -7 6 C-5.46875 4.4921875 -5.46875 4.4921875 -3.5 2.875 C-2.8503125 2.33617187 -2.200625 1.79734375 -1.53125 1.2421875 C-0.77328125 0.62730469 -0.77328125 0.62730469 0 0 Z " fill="#E0729C" transform="translate(276,317)"/>
<path d="M0 0 C0.66 0.66 1.32 1.32 2 2 C-3.94 7.445 -3.94 7.445 -10 13 C-10.66 12.67 -11.32 12.34 -12 12 C-11.0479279 10.99403703 -10.08812654 9.99538437 -9.125 9 C-8.32449219 8.1646875 -8.32449219 8.1646875 -7.5078125 7.3125 C-6 6 -6 6 -4 6 C-3.67 5.01 -3.34 4.02 -3 3 C-2.34 3 -1.68 3 -1 3 C-0.67 2.01 -0.34 1.02 0 0 Z " fill="#CE4571" transform="translate(318,349)"/>
<path d="M0 0 C2.31 0.33 4.62 0.66 7 1 C7 1.99 7 2.98 7 4 C7.66 4 8.32 4 9 4 C8.67 4.66 8.34 5.32 8 6 C5 6 5 6 3.61328125 4.6875 C2.40885417 3.125 1.20442708 1.5625 0 0 Z " fill="#723A4C" transform="translate(63,257)"/>
<path d="M0 0 C1.0625 1.8125 1.0625 1.8125 2 4 C1.67 4.99 1.34 5.98 1 7 C1.66 7.33 2.32 7.66 3 8 C2.34 8.66 1.68 9.32 1 10 C-1.0625 8.25 -1.0625 8.25 -3 6 C-2.82246387 2.98188578 -2.16264785 2.16264785 0 0 Z " fill="#804D60" transform="translate(56,242)"/>
<path d="M0 0 C1.5625 1.25 1.5625 1.25 3 3 C2.6875 5.1875 2.6875 5.1875 2 7 C0.68 7 -0.64 7 -2 7 C-2 6.34 -2 5.68 -2 5 C-2.66 4.67 -3.32 4.34 -4 4 C-3.67 3.34 -3.34 2.68 -3 2 C-2.34 2 -1.68 2 -1 2 C-0.67 1.34 -0.34 0.68 0 0 Z " fill="#6D112E" transform="translate(60,240)"/>
<path d="M0 0 C0 3 0 3 -2.1875 5.5 C-4.71652879 7.74802559 -6.96219189 9.52214741 -10 11 C-10.66 10.67 -11.32 10.34 -12 10 C-7.25 6 -7.25 6 -5 6 C-4.731875 5.38125 -4.46375 4.7625 -4.1875 4.125 C-3 2 -3 2 0 0 Z " fill="#851036" transform="translate(416,255)"/>
<path d="M0 0 C0.99 0 1.98 0 3 0 C3.33 2.64 3.66 5.28 4 8 C3.01 8 2.02 8 1 8 C-1 5 -1 5 -0.625 2.3125 C-0.41875 1.549375 -0.2125 0.78625 0 0 Z " fill="#991640" transform="translate(72,243)"/>
<path d="M0 0 C7.48291572 6.15034169 7.48291572 6.15034169 10 10 C9.01 10 8.02 10 7 10 C6.62875 9.0409375 6.62875 9.0409375 6.25 8.0625 C5.18437567 5.81258459 5.18437567 5.81258459 2.875 5.25 C2.25625 5.1675 1.6375 5.085 1 5 C0.67 3.35 0.34 1.7 0 0 Z " fill="#83485B" transform="translate(395,199)"/>
<path d="M0 0 C-0.33 0.99 -0.66 1.98 -1 3 C-2.32 2.67 -3.64 2.34 -5 2 C-5 2.99 -5 3.98 -5 5 C-6.65 5 -8.3 5 -10 5 C-8.94958421 2.13522966 -8.29875437 1.16086774 -5.5625 -0.3125 C-3 -1 -3 -1 0 0 Z " fill="#67132F" transform="translate(195,111)"/>
<path d="M0 0 C2.25 0.125 2.25 0.125 5 1 C7.3125 4.0625 7.3125 4.0625 9 7 C6 7 6 7 4.39453125 5.46875 C3.87246094 4.8190625 3.35039062 4.169375 2.8125 3.5 C2.28269531 2.8503125 1.75289062 2.200625 1.20703125 1.53125 C0.80871094 1.0259375 0.41039062 0.520625 0 0 Z " fill="#6B2E41" transform="translate(233,426)"/>
<path d="M0 0 C1.32 0.33 2.64 0.66 4 1 C1.69 3.64 -0.62 6.28 -3 9 C-3.66 8.01 -4.32 7.02 -5 6 C-4.34 5.34 -3.68 4.68 -3 4 C-2.01 4 -1.02 4 0 4 C0 2.68 0 1.36 0 0 Z " fill="#782D47" transform="translate(272,412)"/>
<path d="M0 0 C0.99 0.66 1.98 1.32 3 2 C2.67 2.99 2.34 3.98 2 5 C-0.31 5.33 -2.62 5.66 -5 6 C-2.25 1.125 -2.25 1.125 0 0 Z " fill="#DC2360" transform="translate(259,335)"/>
<path d="M0 0 C0.99 0.66 1.98 1.32 3 2 C2.34 3.65 1.68 5.3 1 7 C-1.475 6.01 -1.475 6.01 -4 5 C-2.25 1.125 -2.25 1.125 0 0 Z " fill="#6A102C" transform="translate(76,224)"/>
<path d="M0 0 C1 3 1 3 0.5 5.0625 C-1.76723314 7.99100947 -4.48938392 8.21986309 -8 9 C-7.04270084 7.87411986 -6.08412105 6.7493285 -5.125 5.625 C-4.59132812 4.99851562 -4.05765625 4.37203125 -3.5078125 3.7265625 C-2.38567993 2.44163349 -1.20628025 1.20628025 0 0 Z " fill="#905E69" transform="translate(216,82)"/>
<path d="M0 0 C0.66 0 1.32 0 2 0 C3.00739746 1.66220581 4.00522955 3.33020674 5 5 C6.9332454 7.39307104 8.95429043 9.7027145 11 12 C7.54798361 10.52278578 5.35038064 8.56205999 2.75 5.875 C2.04359375 5.15054687 1.3371875 4.42609375 0.609375 3.6796875 C0.07828125 3.12539063 -0.4528125 2.57109375 -1 2 C-0.67 1.34 -0.34 0.68 0 0 Z " fill="#B9A3AA" transform="translate(129,321)"/>
<path d="M0 0 C0.99 0.66 1.98 1.32 3 2 C0.03 5.3 -2.94 8.6 -6 12 C-6.66 11.67 -7.32 11.34 -8 11 C-7.38511719 10.31164062 -7.38511719 10.31164062 -6.7578125 9.609375 C-6.21898438 8.99578125 -5.68015625 8.3821875 -5.125 7.75 C-4.59132813 7.14671875 -4.05765625 6.5434375 -3.5078125 5.921875 C-2.0202513 4.02581254 -0.99677564 2.18709995 0 0 Z " fill="#9E123F" transform="translate(104,209)"/>
<path d="M0 0 C1.98 1.65 3.96 3.3 6 5 C4.1875 6.0625 4.1875 6.0625 2 7 C1.01 6.67 0.02 6.34 -1 6 C-0.67 4.02 -0.34 2.04 0 0 Z " fill="#7D334C" transform="translate(338,142)"/>
<path d="M0 0 C1.65 0 3.3 0 5 0 C6.04449911 3.13349732 5.93423645 3.98968256 5 7 C3.29115995 5.37660195 1.62553283 3.70680947 0 2 C0 1.34 0 0.68 0 0 Z " fill="#78364C" transform="translate(314,137)"/>
<path d="M0 0 C0.66 0.33 1.32 0.66 2 1 C-0.07143201 5.03384128 -1.96615872 6.92856799 -6 9 C-5.67 8.01 -5.34 7.02 -5 6 C-4.34 6 -3.68 6 -3 6 C-2.690625 5.38125 -2.38125 4.7625 -2.0625 4.125 C-1.375 2.75 -0.6875 1.375 0 0 Z M-8 9 C-7.34 9 -6.68 9 -6 9 C-6 9.66 -6 10.32 -6 11 C-6.99 10.67 -7.98 10.34 -9 10 C-8.67 9.67 -8.34 9.34 -8 9 Z " fill="#881036" transform="translate(349,320)"/>
<path d="M0 0 C0.66 1.32 1.32 2.64 2 4 C-0.97 6.475 -0.97 6.475 -4 9 C-4.33 7.68 -4.66 6.36 -5 5 C-4.01 4.67 -3.02 4.34 -2 4 C-0.79117904 1.99983534 -0.79117904 1.99983534 0 0 Z " fill="#E5497C" transform="translate(263,262)"/>
<path d="M0 0 C1.98 1.65 3.96 3.3 6 5 C5.34 6.32 4.68 7.64 4 9 C3.34 9 2.68 9 2 9 C1.34 6.03 0.68 3.06 0 0 Z " fill="#916172" transform="translate(437,241)"/>
<path d="M0 0 C-1.06588569 2.90696099 -1.70348499 3.84432962 -4.5 5.3125 C-7 6 -7 6 -9 5 C-4.32258065 0 -4.32258065 0 0 0 Z " fill="#823E56" transform="translate(138,164)"/>
<path d="M0 0 C0 3.38023517 -0.87455622 5.83468937 -2 9 C-2.66 9 -3.32 9 -4 9 C-3.67 10.32 -3.34 11.64 -3 13 C-3.66 12.67 -4.32 12.34 -5 12 C-4.50769231 4.61538462 -4.50769231 4.61538462 -1.9375 1.5 C-1.298125 1.005 -0.65875 0.51 0 0 Z " fill="#7D3D51" transform="translate(146,152)"/>
<path d="M0 0 C2 0 2 0 3.5 1.375 C3.995 1.91125 4.49 2.4475 5 3 C5.66 3.66 6.32 4.32 7 5 C3.86559131 6.0448029 2.97903963 6.15317663 0 5 C-0.66 4.01 -1.32 3.02 -2 2 C-1.34 1.34 -0.68 0.68 0 0 Z " fill="#6E102F" transform="translate(274,81)"/>
<path d="M0 0 C0 3.69418201 -1.28179295 5.77836178 -3 9 C-4.65 9 -6.3 9 -8 9 C-7.04270084 7.87411986 -6.08412105 6.7493285 -5.125 5.625 C-4.59132812 4.99851562 -4.05765625 4.37203125 -3.5078125 3.7265625 C-2.38567993 2.44163349 -1.20628025 1.20628025 0 0 Z " fill="#925B6E" transform="translate(228,70)"/>
<path d="M0 0 C0.66 0.66 1.32 1.32 2 2 C-1.44615385 6.8 -1.44615385 6.8 -4.25 7.8125 C-5.11625 7.9053125 -5.11625 7.9053125 -6 8 C-4.55746343 4.63408134 -2.66735273 2.48952921 0 0 Z " fill="#CD2F62" transform="translate(342,325)"/>
<path d="M0 0 C3.48539917 0.64544429 6.02819057 2.10134397 9 4 C8.67 4.66 8.34 5.32 8 6 C5 6 5 6 3.61328125 4.6875 C2.40885417 3.125 1.20442708 1.5625 0 0 Z " fill="#7E4461" transform="translate(86,280)"/>
<path d="M0 0 C2.31 0 4.62 0 7 0 C7 2.31 7 4.62 7 7 C5.83040013 6.02433888 4.66438823 5.044375 3.5 4.0625 C2.8503125 3.51722656 2.200625 2.97195313 1.53125 2.41015625 C1.0259375 1.94480469 0.520625 1.47945313 0 1 C0 0.67 0 0.34 0 0 Z " fill="#A7385D" transform="translate(360,255)"/>
<path d="M0 0 C3.36720387 1.39332574 4.9859524 2.9789286 7 6 C5.35 5.67 3.7 5.34 2 5 C2 4.34 2 3.68 2 3 C0.68 3 -0.64 3 -2 3 C-1 1 -1 1 0 0 Z " fill="#7C3A50" transform="translate(349,154)"/>
<path d="M0 0 C0 0.99 0 1.98 0 3 C0.33 3.33 0.66 3.66 1 4 C0.34 5.32 -0.32 6.64 -1 8 C-2.32 7.67 -3.64 7.34 -5 7 C-3.47793991 4.37098712 -2.15634036 2.15634036 0 0 Z " fill="#793E50" transform="translate(233,65)"/>
<path d="M0 0 C1.14926266 0.95421808 2.29430541 1.91352045 3.4375 2.875 C4.07558594 3.40867188 4.71367187 3.94234375 5.37109375 4.4921875 C7 6 7 6 8 8 C5.625 7.6875 5.625 7.6875 3 7 C2.34 6.01 1.68 5.02 1 4 C0.34 4 -0.32 4 -1 4 C-0.67 2.68 -0.34 1.36 0 0 Z " fill="#82485B" transform="translate(429,233)"/>
<path d="M0 0 C0.99 0.66 1.98 1.32 3 2 C2.67 2.99 2.34 3.98 2 5 C0.0625 5.8125 0.0625 5.8125 -2 6 C-2.66 5.34 -3.32 4.68 -4 4 C-2.68 2.68 -1.36 1.36 0 0 Z " fill="#823F55" transform="translate(93,205)"/>
<path d="M0 0 C-1.04874998 2.62187494 -1.64931313 3.79371361 -4.125 5.25 C-4.74375 5.4975 -5.3625 5.745 -6 6 C-5.625 3.5625 -5.625 3.5625 -5 1 C-3 0 -3 0 0 0 Z " fill="#E23F73" transform="translate(216,177)"/>
<path d="M0 0 C0.99 0.33 1.98 0.66 3 1 C-0.465 3.97 -0.465 3.97 -4 7 C-4 5.02 -4 3.04 -4 1 C-2.68 1.33 -1.36 1.66 0 2 C0 1.34 0 0.68 0 0 Z " fill="#81455B" transform="translate(228,89)"/>
<path d="M0 0 C0.99 0.33 1.98 0.66 3 1 C0.69 3.31 -1.62 5.62 -4 8 C-4.66 7.34 -5.32 6.68 -6 6 C-4.71034824 4.62437146 -3.37310707 3.29233607 -2 2 C-1.34 2 -0.68 2 0 2 C0 1.34 0 0.68 0 0 Z " fill="#844C60" transform="translate(236,81)"/>
<path d="M0 0 C0.99 0.33 1.98 0.66 3 1 C-0.465 3.97 -0.465 3.97 -4 7 C-4.66 6.34 -5.32 5.68 -6 5 C-5.34 5 -4.68 5 -4 5 C-4 4.01 -4 3.02 -4 2 C-2.68 2 -1.36 2 0 2 C0 1.34 0 0.68 0 0 Z " fill="#CD3967" transform="translate(293,374)"/>
<path d="M0 0 C0.66 0 1.32 0 2 0 C2 0.66 2 1.32 2 2 C2.61875 2.268125 3.2375 2.53625 3.875 2.8125 C6 4 6 4 8 7 C3.61031544 7 2.23094261 4.87194899 -1 2 C-0.67 1.34 -0.34 0.68 0 0 Z " fill="#703C4C" transform="translate(181,373)"/>
<path d="M0 0 C0.66 0 1.32 0 2 0 C3.2890625 1.53125 3.2890625 1.53125 4.625 3.5 C5.07101563 4.1496875 5.51703125 4.799375 5.9765625 5.46875 C6.31429687 5.9740625 6.65203125 6.479375 7 7 C4 7 4 7 2.61328125 5.6875 C1.40885417 4.125 0.20442708 2.5625 -1 1 C-0.67 0.67 -0.34 0.34 0 0 Z " fill="#6C3145" transform="translate(141,332)"/>
<path d="M0 0 C3.875 1.75 3.875 1.75 5 4 C3.8553125 4.2165625 3.8553125 4.2165625 2.6875 4.4375 C-0.08172908 4.9632594 -0.08172908 4.9632594 -3 6 C-2 4 -1 2 0 0 Z " fill="#E14A81" transform="translate(231,320)"/>
<path d="M0 0 C1.875 0.25 1.875 0.25 4 1 C6.11103658 3.95545121 6.19785783 6.43855901 6 10 C5.71125 9.360625 5.4225 8.72125 5.125 8.0625 C4.17176549 5.84793921 4.17176549 5.84793921 2 5 C2 4.34 2 3.68 2 3 C1.34 2.67 0.68 2.34 0 2 C0 1.34 0 0.68 0 0 Z " fill="#6C1331" transform="translate(433,240)"/>
<path d="M0 0 C1 4 1 4 0 6 C-3.0625 6.625 -3.0625 6.625 -6 7 C-4.02 4.69 -2.04 2.38 0 0 Z " fill="#865261" transform="translate(240,58)"/>
<path d="M0 0 C2.97 0.495 2.97 0.495 6 1 C6.33 1.99 6.66 2.98 7 4 C6.34 4.66 5.68 5.32 5 6 C3.35 4.02 1.7 2.04 0 0 Z " fill="#85495D" transform="translate(215,409)"/>
<path d="M0 0 C0.99 0.33 1.98 0.66 3 1 C0.36 3.64 -2.28 6.28 -5 9 C-5.33 8.01 -5.66 7.02 -6 6 C-4 4 -2 2 0 0 Z " fill="#600B27" transform="translate(326,359)"/>
<path d="M0 0 C0.66 0.33 1.32 0.66 2 1 C0.60667426 4.36720387 -0.9789286 5.9859524 -4 8 C-3.50168276 4.31245243 -2.89932357 2.39509338 0 0 Z " fill="#7B3149" transform="translate(381,304)"/>
<path d="M0 0 C0.33 1.32 0.66 2.64 1 4 C0.34 4 -0.32 4 -1 4 C-1 4.66 -1 5.32 -1 6 C-2.65 6.33 -4.3 6.66 -6 7 C-4.02 4.69 -2.04 2.38 0 0 Z " fill="#B04E6F" transform="translate(367,269)"/>
<path d="M0 0 C0.99 0 1.98 0 3 0 C2.60196439 2.88575819 2.20990931 3.82189513 -0.0625 5.75 C-0.701875 6.1625 -1.34125 6.575 -2 7 C-1.125 2.25 -1.125 2.25 0 0 Z " fill="#792C46" transform="translate(418,266)"/>
<path d="M0 0 C2.475 0.495 2.475 0.495 5 1 C5 2.98 5 4.96 5 7 C2.5 5.1875 2.5 5.1875 0 3 C0 2.01 0 1.02 0 0 Z " fill="#6A3449" transform="translate(58,250)"/>
<path d="M0 0 C0.33 1.32 0.66 2.64 1 4 C0.360625 4.103125 -0.27875 4.20625 -0.9375 4.3125 C-1.618125 4.539375 -2.29875 4.76625 -3 5 C-3.33 5.99 -3.66 6.98 -4 8 C-4.66 7.34 -5.32 6.68 -6 6 C-4.02 4.02 -2.04 2.04 0 0 Z " fill="#925365" transform="translate(63,235)"/>
<path d="M0 0 C1.485 0.99 1.485 0.99 3 2 C3 2.99 3 3.98 3 5 C3.66 5.33 4.32 5.66 5 6 C3.35 6.33 1.7 6.66 0 7 C0 4.66666667 0 2.33333333 0 0 Z " fill="#6A122F" transform="translate(411,216)"/>
<path d="M0 0 C1.14926266 0.95421808 2.29430541 1.91352045 3.4375 2.875 C4.07558594 3.40867188 4.71367187 3.94234375 5.37109375 4.4921875 C7 6 7 6 8 8 C7.01 8 6.02 8 5 8 C4.34 7.01 3.68 6.02 3 5 C0.94996045 3.80767387 0.94996045 3.80767387 -1 3 C-0.67 2.01 -0.34 1.02 0 0 Z " fill="#D52861" transform="translate(268,211)"/>
<path d="M0 0 C0.99 1.32 1.98 2.64 3 4 C2.38125 4.28875 1.7625 4.5775 1.125 4.875 C-1.13325765 5.93720042 -1.13325765 5.93720042 -3 8 C-3.33 6.35 -3.66 4.7 -4 3 C-2.68 2.01 -1.36 1.02 0 0 Z " fill="#630F2B" transform="translate(98,202)"/>
<path d="M0 0 C1.32 0 2.64 0 4 0 C6.25 3 6.25 3 8 6 C5 6 5 6 3.61328125 4.6875 C2.40885417 3.125 1.20442708 1.5625 0 0 Z " fill="#7E4358" transform="translate(369,193)"/>
<path d="M0 0 C0.1875 2.375 0.1875 2.375 0 5 C-0.99 5.66 -1.98 6.32 -3 7 C-3.66 6.34 -4.32 5.68 -5 5 C-2.74193548 0 -2.74193548 0 0 0 Z " fill="#66112D" transform="translate(172,129)"/>
<path d="M0 0 C0.66 0 1.32 0 2 0 C2 1.32 2 2.64 2 4 C3.91666921 6.25065102 3.91666921 6.25065102 6 8 C4.35 7.67 2.7 7.34 1 7 C0.67 4.69 0.34 2.38 0 0 Z " fill="#E05E87" transform="translate(220,306)"/>
<path d="M0 0 C2.31 1.98 4.62 3.96 7 6 C5 7 5 7 2.9375 6.375 C1 5 1 5 0.25 2.375 C0.1675 1.59125 0.085 0.8075 0 0 Z " fill="#84485B" transform="translate(418,222)"/>
<path d="M0 0 C0.66 0.33 1.32 0.66 2 1 C0.25 3.9375 0.25 3.9375 -2 7 C-3.32 7.33 -4.64 7.66 -6 8 C-4.02 5.36 -2.04 2.72 0 0 Z " fill="#E47CA4" transform="translate(235,218)"/>
<path d="M0 0 C0.33 0.99 0.66 1.98 1 3 C-2.48058971 5.32039314 -2.98142912 5 -7 5 C-4.63707344 2.47411298 -3.33537489 1.11179163 0 0 Z " fill="#874A63" transform="translate(101,199)"/>
<path d="M0 0 C1.32 0 2.64 0 4 0 C2.63016497 3.16115776 2.0109362 3.9927092 -1 6 C-1.042721 4.33388095 -1.04063832 2.66617115 -1 1 C-0.67 0.67 -0.34 0.34 0 0 Z " fill="#DC4073" transform="translate(220,169)"/>
<path d="M0 0 C1 2 1 2 1 5 C-0.5 6.6875 -0.5 6.6875 -2 8 C-2.33 7.34 -2.66 6.68 -3 6 C-3.66 5.67 -4.32 5.34 -5 5 C-3.35 3.35 -1.7 1.7 0 0 Z " fill="#90516B" transform="translate(174,124)"/>
<path d="M0 0 C0.66 0.33 1.32 0.66 2 1 C0.68 2.65 -0.64 4.3 -2 6 C-2.99 5.67 -3.98 5.34 -5 5 C-4.1875 3.0625 -4.1875 3.0625 -3 1 C-2.01 0.67 -1.02 0.34 0 0 Z " fill="#63142D" transform="translate(178,123)"/>
<path d="M0 0 C1.32 0.33 2.64 0.66 4 1 C2.35 2.98 0.7 4.96 -1 7 C-1.66 6.67 -2.32 6.34 -3 6 C-2.01 4.02 -1.02 2.04 0 0 Z " fill="#955669" transform="translate(207,109)"/>
<path d="M0 0 C0.66 0.33 1.32 0.66 2 1 C2 1.66 2 2.32 2 3 C0.03852126 4.38938077 -1.96166576 5.7260411 -4 7 C-4.66 6.67 -5.32 6.34 -6 6 C-4.02 4.02 -2.04 2.04 0 0 Z " fill="#8C6472" transform="translate(247,51)"/>
<path d="M0 0 C3.16115776 1.36983503 3.9927092 1.9890638 6 5 C5.67 5.99 5.34 6.98 5 8 C0 2.25 0 2.25 0 0 Z " fill="#804F5D" transform="translate(206,398)"/>
<path d="M0 0 C-1.75 3.875 -1.75 3.875 -4 5 C-4.66 4.34 -5.32 3.68 -6 3 C-3.375 0 -3.375 0 0 0 Z " fill="#782A43" transform="translate(309,379)"/>
<path d="M0 0 C2.5363613 1.01454452 3.79351461 1.6853556 5.3125 4 C5.539375 4.66 5.76625 5.32 6 6 C5.67 6.66 5.34 7.32 5 8 C0 2.25 0 2.25 0 0 Z " fill="#7C4B5C" transform="translate(163,355)"/>
<path d="M0 0 C0.99 0.33 1.98 0.66 3 1 C2.34 2.32 1.68 3.64 1 5 C-0.32 5 -1.64 5 -3 5 C-1.125 1.125 -1.125 1.125 0 0 Z " fill="#A93D62" transform="translate(358,278)"/>
<path d="M0 0 C0.66 0 1.32 0 2 0 C2 0.66 2 1.32 2 2 C3.32 2 4.64 2 6 2 C6.33 3.65 6.66 5.3 7 7 C6.01 6.67 5.02 6.34 4 6 C4 5.34 4 4.68 4 4 C3.01 3.67 2.02 3.34 1 3 C0.67 2.01 0.34 1.02 0 0 Z " fill="#931C44" transform="translate(383,232)"/>
<path d="M0 0 C0.625 1.875 0.625 1.875 1 4 C0.34 4.66 -0.32 5.32 -1 6 C-3.125 5.625 -3.125 5.625 -5 5 C-3.35 3.35 -1.7 1.7 0 0 Z " fill="#89576A" transform="translate(88,210)"/>
<path d="M0 0 C0 0.99 0 1.98 0 3 C-0.99 3.33 -1.98 3.66 -3 4 C-3.33 4.66 -3.66 5.32 -4 6 C-4.99 5.67 -5.98 5.34 -7 5 C-2.25 0 -2.25 0 0 0 Z " fill="#DB7897" transform="translate(248,208)"/>
<path d="M0 0 C1 2 1 2 1 5 C0.67 5.66 0.34 6.32 0 7 C-1.65 6.67 -3.3 6.34 -5 6 C-3.35 4.02 -1.7 2.04 0 0 Z " fill="#885E6B" transform="translate(128,170)"/>
<path d="M0 0 C3.36720387 1.39332574 4.9859524 2.9789286 7 6 C4 6 4 6 1.8125 4.125 C0 2 0 2 0 0 Z " fill="#784053" transform="translate(342,165)"/>
<path d="M0 0 C3.91402949 1.26941497 5.79072873 2.51167694 8 6 C5 6 5 6 3.61328125 4.6875 C2.40885417 3.125 1.20442708 1.5625 0 0 Z " fill="#7E4A5B" transform="translate(322,146)"/>
<path d="M0 0 C0.99 0.33 1.98 0.66 3 1 C-0.465 3.97 -0.465 3.97 -4 7 C-3.67 5.35 -3.34 3.7 -3 2 C-2.01 2 -1.02 2 0 2 C0 1.34 0 0.68 0 0 Z " fill="#895264" transform="translate(218,99)"/>
<path d="M0 0 C0.66 0.33 1.32 0.66 2 1 C-0.31 3.31 -2.62 5.62 -5 8 C-5.33 7.01 -5.66 6.02 -6 5 C-4.02 3.35 -2.04 1.7 0 0 Z " fill="#610C28" transform="translate(285,401)"/>
<path d="M0 0 C1.65 0 3.3 0 5 0 C3.35 1.98 1.7 3.96 0 6 C-1 3 -1 3 0 0 Z " fill="#DA4473" transform="translate(178,210)"/>
<path d="M0 0 C1.67542976 0.28604898 3.34385343 0.61781233 5 1 C4.01 1.495 4.01 1.495 3 2 C2.34786708 4.02463255 2.34786708 4.02463255 2 6 C1.34 6 0.68 6 0 6 C-0.38218767 4.34385343 -0.71395102 2.67542976 -1 1 C-0.67 0.67 -0.34 0.34 0 0 Z " fill="#E5658F" transform="translate(189,200)"/>
<path d="M0 0 C0.99 0.33 1.98 0.66 3 1 C0.03 3.475 0.03 3.475 -3 6 C-3.66 5.67 -4.32 5.34 -5 5 C-3.35 3.35 -1.7 1.7 0 0 Z " fill="#62112A" transform="translate(149,151)"/>
<path d="M0 0 C1.98 1.65 3.96 3.3 6 5 C4.125 5.625 4.125 5.625 2 6 C1.34 5.34 0.68 4.68 0 4 C0 2.68 0 1.36 0 0 Z " fill="#E45C87" transform="translate(217,146)"/>
<path d="M0 0 C0 0.99 0 1.98 0 3 C-2.5 5.1875 -2.5 5.1875 -5 7 C-5 5.68 -5 4.36 -5 3 C-2.5 1.25 -2.5 1.25 0 0 Z " fill="#DF3268" transform="translate(179,141)"/>
<path d="M0 0 C0.99 0.33 1.98 0.66 3 1 C3 1.66 3 2.32 3 3 C3.66 3 4.32 3 5 3 C4.67 3.99 4.34 4.98 4 6 C2.35 4.35 0.7 2.7 -1 1 C-0.67 0.67 -0.34 0.34 0 0 Z " fill="#733348" transform="translate(268,90)"/>
</svg>
